<?xml version="1.0" standalone="no"?>
<!DOCTYPE svg PUBLIC "-//W3C//DTD SVG 20010904//EN"
 "http://www.w3.org/TR/2001/REC-SVG-20010904/DTD/svg10.dtd">
<svg version="1.0" xmlns="http://www.w3.org/2000/svg"
 width="700.000000pt" height="700.000000pt" viewBox="0 0 700.000000 700.000000"
 preserveAspectRatio="xMidYMid meet">
<metadata>
Created by potrace 1.11, written by Peter Selinger 2001-2013
</metadata>
<g transform="translate(0.000000,700.000000) scale(0.100000,-0.100000)"
fill="#000000" stroke="none">
<path d="M4771 6954 c0 -11 3 -14 6 -6 3 7 2 16 -1 19 -3 4 -6 -2 -5 -13z"/>
<path d="M4657 6638 c-59 -161 -118 -324 -132 -363 -34 -91 -154 -419 -172
-470 -16 -44 -264 -714 -524 -1418 -94 -251 -168 -461 -165 -466 3 -4 130 30
283 76 153 45 292 86 310 89 33 6 35 9 48 94 13 78 16 99 35 200 10 58 21 123
25 145 3 22 7 47 10 55 2 8 6 32 9 52 3 21 13 77 21 125 9 49 18 104 21 123 3
19 7 42 9 50 3 8 7 33 10 55 3 22 10 63 15 90 5 28 12 64 15 80 3 17 7 39 9
50 2 11 7 40 11 65 4 25 9 54 11 65 2 10 6 35 9 55 3 20 8 47 11 60 2 14 7 39
9 55 9 65 18 110 22 118 12 20 305 -160 448 -276 256 -208 439 -433 614 -757
22 -41 46 -74 53 -74 15 2 291 85 296 89 6 6 -110 227 -167 320 -97 158 -231
326 -376 470 -140 141 -161 160 -245 225 -25 19 -47 37 -50 40 -3 3 -52 37
-110 76 -114 77 -200 127 -325 189 -44 22 -79 45 -78 50 0 6 4 28 7 50 14 92
67 390 70 393 6 5 106 -38 227 -98 621 -311 1098 -790 1410 -1416 l80 -162 62
20 c34 11 68 22 74 24 16 4 -4 57 -83 214 -103 208 -221 392 -363 570 -102
128 -118 147 -251 280 -194 196 -391 350 -637 498 -110 67 -410 216 -456 228
-16 3 -31 12 -33 19 -3 6 4 63 15 126 12 63 23 132 27 154 3 22 8 43 11 48 2
4 0 7 -5 7 -5 0 -56 -132 -115 -292z"/>
<path d="M3367 6824 c-1 -1 -45 -5 -97 -8 -52 -4 -111 -8 -130 -11 -19 -2 -57
-7 -85 -11 -170 -21 -432 -83 -608 -143 -186 -64 -227 -82 -228 -100 0 -9 -3
-11 -5 -4 -7 16 -22 10 -185 -72 -467 -234 -858 -555 -1176 -967 -141 -182
-305 -459 -403 -683 -45 -104 -51 -114 -63 -110 -15 5 -14 5 -302 54 -27 5
-51 8 -53 6 -3 -3 3 -5 253 -95 50 -18 91 -34 93 -35 1 -1 -9 -33 -22 -71 -63
-176 -131 -458 -151 -629 -4 -27 -8 -61 -11 -75 -18 -114 -24 -438 -11 -633
11 -167 53 -423 93 -567 34 -122 116 -368 138 -412 13 -26 21 -50 19 -52 -8
-8 153 -327 222 -441 272 -449 662 -837 1119 -1112 113 -69 312 -169 430 -218
l68 -29 -6 -45 c-3 -26 -8 -57 -10 -71 -16 -87 -46 -260 -46 -267 1 -4 9 15
19 42 154 418 294 794 300 810 5 11 36 94 69 185 66 179 159 433 325 880 341
922 418 1133 415 1136 -3 3 -132 -35 -553 -161 l-81 -24 -18 -108 c-10 -59
-20 -117 -22 -128 -3 -11 -7 -36 -10 -55 -3 -19 -21 -122 -40 -228 -19 -106
-36 -205 -38 -220 -2 -15 -6 -43 -10 -62 -3 -19 -17 -100 -31 -180 -14 -80
-28 -156 -31 -170 -4 -23 -8 -46 -20 -125 -3 -16 -7 -37 -9 -45 -2 -8 -6 -31
-9 -50 -3 -19 -10 -62 -16 -95 -5 -33 -10 -61 -10 -63 0 -18 -393 226 -430
267 -3 3 -36 33 -75 66 -207 177 -383 395 -524 651 -33 60 -64 114 -68 121 -6
8 -49 -1 -158 -34 -82 -25 -152 -47 -153 -49 -7 -5 108 -224 169 -323 62 -99
170 -247 232 -320 114 -131 354 -354 467 -431 19 -13 37 -27 40 -30 14 -17
233 -147 330 -196 l111 -56 -6 -46 c-3 -26 -8 -56 -10 -67 -3 -11 -7 -33 -10
-50 -3 -16 -12 -68 -20 -115 -8 -47 -17 -103 -21 -125 -3 -22 -9 -43 -12 -47
-10 -9 -199 77 -344 157 -359 198 -670 460 -927 780 -87 108 -207 277 -224
315 -4 8 -16 29 -27 45 -47 72 -179 339 -180 363 0 15 -24 16 -51 2 -10 -6
-19 -7 -19 -2 0 5 62 35 137 67 76 31 192 79 258 107 66 27 129 53 140 58 11
5 43 18 70 30 28 12 59 25 70 30 11 5 81 34 155 65 74 31 149 62 165 70 36 16
494 209 1140 480 259 109 488 205 510 215 22 10 81 34 130 55 50 20 104 43
120 50 63 27 68 27 62 3 -3 -13 -35 -99 -71 -193 -36 -93 -66 -175 -66 -181 0
-6 22 -51 48 -100 27 -49 67 -123 89 -164 22 -41 52 -95 65 -120 35 -62 267
-490 310 -570 38 -70 217 -399 253 -465 12 -22 42 -76 65 -120 23 -44 53 -98
65 -120 12 -22 37 -66 54 -98 l31 -58 -37 -15 c-70 -30 -271 -85 -353 -98
-208 -33 -274 -39 -420 -40 -188 0 -331 10 -440 33 -83 18 -105 22 -140 26
l-35 5 -78 -133 c-43 -72 -79 -136 -79 -142 0 -15 247 -74 382 -91 30 -3 64
-8 75 -11 39 -9 481 -11 550 -2 81 10 161 20 190 24 80 12 279 63 399 103
l144 48 100 -182 c55 -100 103 -191 106 -201 5 -17 -6 -24 -81 -53 -210 -79
-453 -144 -645 -170 -46 -7 -94 -14 -108 -15 -160 -23 -569 -23 -720 0 -14 2
-50 6 -80 10 -30 3 -77 11 -105 16 -27 6 -63 13 -80 15 -43 8 -239 59 -312 82
l-62 20 -16 -24 c-8 -13 -15 -26 -15 -29 0 -3 -12 -24 -26 -46 -14 -23 -24
-43 -22 -45 19 -19 350 -103 503 -129 149 -24 145 -24 320 -40 55 -6 417 -6
480 -1 191 15 411 52 600 101 129 33 375 115 428 142 15 7 32 11 37 8 5 -3 66
21 136 55 607 289 1082 722 1440 1311 57 94 190 361 215 431 10 30 17 37 33
33 23 -5 116 -21 181 -31 22 -3 72 -12 112 -18 40 -7 70 -9 67 -4 -3 4 -10 8
-16 8 -9 0 -135 45 -323 115 -38 14 -99 36 -135 49 -72 27 -364 133 -480 176
-41 15 -194 71 -340 125 -248 91 -314 115 -545 200 -49 18 -157 58 -240 88
-82 30 -168 62 -190 70 -22 9 -80 30 -130 47 -49 17 -99 35 -110 40 -33 14
-541 200 -547 200 -3 0 5 -37 19 -82 13 -46 37 -126 53 -178 16 -52 45 -151
65 -220 20 -68 40 -131 45 -140 6 -11 34 -20 82 -28 40 -6 87 -14 103 -18 17
-3 39 -7 50 -9 25 -3 432 -73 460 -79 11 -2 42 -7 68 -10 48 -7 67 -11 117
-21 14 -2 41 -7 60 -10 19 -3 62 -11 95 -17 33 -6 69 -12 80 -13 64 -10 392
-66 403 -70 15 -5 -3 -45 -81 -175 -103 -173 -203 -299 -361 -455 -134 -133
-157 -153 -266 -232 -106 -77 -224 -150 -318 -197 -40 -20 -72 -41 -72 -48 0
-14 66 -242 81 -280 l11 -27 115 60 c266 139 473 289 674 489 225 225 384 442
518 709 45 89 54 101 74 97 24 -6 173 -33 222 -41 17 -3 57 -10 90 -15 87 -14
119 -21 122 -24 10 -10 -132 -295 -220 -441 -231 -385 -575 -745 -946 -988
-174 -114 -192 -124 -360 -208 l-158 -79 18 -56 c11 -32 17 -59 15 -61 -2 -3
-7 6 -11 19 -6 20 -39 99 -80 193 -8 17 -50 118 -95 225 -87 209 -125 297
-146 345 -7 17 -61 145 -119 285 -59 140 -113 269 -120 285 -12 26 -531 1258
-565 1340 -7 17 -16 39 -21 50 -5 11 -31 74 -59 140 -28 66 -55 124 -60 129
-4 4 2 31 15 60 12 28 37 94 55 146 18 52 45 124 59 160 23 57 25 67 12 82 -8
9 -33 52 -56 95 -22 43 -122 227 -220 408 -98 182 -190 353 -205 380 -15 28
-43 79 -62 115 -20 36 -79 146 -133 245 -53 99 -112 207 -130 240 -18 33 -51
96 -75 140 -23 44 -54 100 -67 124 -13 24 -23 44 -21 46 18 15 256 81 373 104
191 38 303 48 490 45 186 -2 264 -10 450 -46 60 -11 111 -17 112 -12 2 5 39
67 82 139 44 71 77 133 75 137 -11 17 -328 79 -499 97 -82 8 -476 7 -530 -2
-16 -3 -52 -8 -80 -11 -163 -19 -435 -87 -583 -145 l-51 -20 -14 27 c-13 26
-49 93 -140 262 -22 41 -45 83 -51 92 -7 12 -7 21 -1 27 15 15 254 98 379 131
135 36 288 68 364 76 32 3 59 7 62 9 16 10 217 20 390 20 177 0 306 -7 400
-20 77 -12 176 -28 195 -32 11 -2 31 -6 45 -9 89 -18 199 -47 319 -83 19 -6
37 -8 42 -6 10 7 82 136 77 140 -8 8 -325 96 -402 111 -50 10 -195 34 -236 39
-25 3 -61 8 -80 10 -98 12 -484 27 -493 19z m-1097 -399 c23 -55 47 -113 54
-130 8 -16 54 -127 104 -245 107 -255 591 -1406 702 -1670 43 -102 141 -336
219 -521 77 -184 141 -341 141 -348 0 -9 -6 -11 -17 -6 -10 4 -100 37 -201 73
l-183 65 -52 -28 c-29 -15 -74 -40 -102 -55 -27 -15 -79 -43 -115 -62 -36 -19
-85 -46 -110 -60 -25 -14 -81 -44 -125 -68 -44 -24 -100 -54 -125 -68 -179
-98 -505 -274 -590 -319 -47 -25 -128 -69 -180 -98 -376 -208 -417 -227 -425
-208 -43 108 -95 320 -121 488 -24 164 -24 495 1 665 25 165 111 480 132 480
9 0 250 -87 583 -210 41 -16 145 -54 230 -85 85 -31 214 -78 285 -105 72 -27
247 -92 390 -145 143 -53 273 -101 288 -107 15 -6 29 -9 31 -7 2 2 -10 47 -26
99 -47 152 -63 206 -108 360 -24 80 -46 152 -51 161 -6 12 -38 21 -111 33 -57
9 -114 18 -128 21 -13 2 -42 7 -65 10 -22 3 -47 8 -55 10 -17 5 -539 94 -585
101 -16 2 -54 9 -83 15 -29 6 -65 12 -80 14 -15 2 -43 6 -62 10 -117 20 -158
27 -180 31 -14 2 -56 9 -95 15 -38 6 -73 13 -78 16 -20 12 154 291 274 440 86
107 276 295 379 374 110 86 263 185 371 242 l86 44 -45 149 c-24 82 -48 153
-52 158 -12 12 -223 -101 -375 -201 -71 -48 -132 -89 -135 -93 -3 -3 -25 -21
-50 -40 -80 -62 -103 -83 -235 -215 -151 -150 -169 -171 -262 -294 -89 -118
-180 -264 -245 -393 -28 -57 -53 -105 -54 -107 -7 -9 -462 74 -459 83 9 48
126 284 208 421 317 535 814 985 1367 1239 106 49 114 54 99 72 -6 8 -8 14 -5
14 4 0 3 8 -2 18 -11 21 -26 79 -18 72 3 -3 24 -51 46 -105z m-1680 -1861 c25
-9 54 -20 65 -24 11 -5 84 -32 163 -60 78 -29 142 -56 142 -61 0 -5 -7 -26
-14 -46 -16 -39 -64 -199 -71 -230 -2 -10 -13 -61 -24 -113 -98 -457 -64 -973
94 -1420 15 -41 28 -83 28 -93 2 -14 -23 -32 -88 -69 -151 -83 -293 -158 -303
-158 -9 0 -90 221 -122 335 -33 114 -68 275 -85 391 -9 60 -18 120 -20 134 -7
44 -18 242 -18 330 0 94 12 340 17 349 2 3 6 35 10 71 3 36 8 76 11 90 3 14
12 60 20 103 34 178 125 487 143 487 4 0 27 -7 52 -16z m-70 -2328 c0 -2 -7
-7 -16 -10 -8 -3 -12 -2 -9 4 6 10 25 14 25 6z"/>
<path d="M6375 4705 c-99 -42 -189 -79 -200 -84 -30 -14 -317 -134 -420 -176
-49 -20 -110 -45 -134 -56 -24 -11 -64 -28 -90 -39 -56 -22 -548 -227 -576
-240 -11 -5 -78 -34 -150 -64 -363 -151 -630 -263 -720 -301 -55 -23 -207 -86
-337 -141 -131 -54 -238 -101 -238 -104 0 -3 62 -27 138 -54 75 -26 165 -59
199 -73 l62 -24 78 42 c43 23 96 52 118 64 22 12 85 46 140 75 55 29 109 58
120 65 11 7 58 33 105 57 47 25 144 77 215 115 72 39 166 89 210 113 44 23
127 68 185 100 58 31 141 76 185 100 104 56 178 96 240 130 28 15 89 48 138
74 l87 47 9 -23 c48 -126 100 -329 116 -453 3 -16 7 -46 10 -65 22 -142 22
-503 0 -590 -2 -8 -7 -35 -10 -60 -4 -25 -13 -76 -21 -115 -8 -38 -16 -81 -19
-95 -6 -26 7 -36 134 -107 24 -14 64 -38 89 -54 25 -16 49 -29 52 -29 14 0 66
222 94 400 27 168 27 561 1 714 -2 11 -9 48 -14 81 -21 127 -81 372 -108 435
-13 31 -41 115 -40 117 8 7 399 214 401 211 8 -8 58 -143 86 -230 55 -170 109
-405 126 -548 2 -19 6 -48 8 -65 24 -169 25 -534 2 -710 -2 -11 -6 -47 -11
-80 -13 -106 -65 -343 -100 -458 -18 -62 -33 -112 -32 -113 1 -1 32 -20 70
-43 l67 -41 11 27 c44 111 128 462 144 598 3 28 10 88 16 135 23 184 15 613
-14 785 -3 17 -11 64 -17 105 -37 237 -183 721 -217 720 -5 -1 -89 -34 -188
-75z"/>
</g>
</svg>
