<svg xmlns="http://www.w3.org/2000/svg" width="247.1914mm" height="90.6608mm" viewBox="0 0 700.7 256.9911"><title>routecause</title><ellipse cx="356.3664" cy="128.4955" rx="119.0361" ry="118.7028" transform="translate(112.9167 418.7374) rotate(-69.8385)" fill="#1c73be" stroke="#1c3661" stroke-miterlimit="10" stroke-width="5.9554"/><ellipse cx="356.3664" cy="128.4955" rx="93.392" ry="93.1305" transform="translate(112.9167 418.7374) rotate(-69.8385)" fill="#1c73be" stroke="#1c3661" stroke-miterlimit="10" stroke-width="11.9107"/><path d="M384.5514,116.6088l-28.2262,11.9987,127.9416,47.3584Z" fill="#1c73be"/><path d="M484.4607,175.783l-114.31-19.6093-13.755-27.4132.0411-.112S484.5724,175.824,484.4607,175.783Z" fill="#1c3661"/><polygon points="356.366 128.496 371.439 134.03 468.954 81.02 356.366 128.496" fill="#1c3661"/><path d="M368.2471,156.8724l-11.9219-28.2649-47.49,128.3016Z" fill="#1c73be"/><path d="M309.059,256.9911l19.7749-114.59,27.38-13.8342.1116.041S309.0179,257.103,309.059,256.9911Z" fill="#1c3661"/><polygon points="356.366 128.496 371.398 134.142 403.878 242.38 356.366 128.496" fill="#1c73be"/><polygon points="356.366 128.496 350.775 143.723 403.607 241.391 356.366 128.496" fill="#1c3661"/><path d="M328.14,140.4942l28.2261-11.9987L228.4247,81.1371Z" fill="#1c73be"/><path d="M228.2309,81.32l114.31,19.6094,13.755,27.4132-.0411.1119S228.1192,81.279,228.2309,81.32Z" fill="#1c3661"/><polygon points="356.366 128.496 350.664 143.682 242.639 176.315 356.366 128.496" fill="#1c73be"/><polygon points="356.366 128.496 341.252 123.073 243.738 176.083 356.366 128.496" fill="#1c3661"/><path d="M344.4445,100.2307l11.9219,28.2648L403.8559.1939Z" fill="#1c73be"/><path d="M403.6737,0,383.8988,114.59l-27.38,13.8342-.1116-.041C356.478,128.5365,403.6737,0,403.6737,0Z" fill="#1c3661"/><polygon points="356.366 128.496 341.293 122.961 308.814 14.723 356.366 128.496" fill="#1c73be"/><polygon points="356.366 128.496 361.916 113.38 309.196 15.753 356.366 128.496" fill="#1c3661"/><polygon points="356.366 128.496 362.028 113.421 470.053 80.788 356.366 128.496" fill="#1c73be"/><path d="M25.2,140.1542H19.8v14.8H0v-58.8H28.3a34.593,34.593,0,0,1,14.2,2.7,21.5146,21.5146,0,0,1,9.3,7.7,21.1588,21.1588,0,0,1,3.3,11.8,19.9222,19.9222,0,0,1-11.1,18.5l12.3,18.1H35.2Zm7.9-26.9c-1.3-1.2-3.4-1.8-6-1.8H19.9v13.8h7.2q4.05,0,6-1.8a7.5025,7.5025,0,0,0,0-10.2Z" fill="#fff"/><path d="M83.1,152.3542a29.1381,29.1381,0,0,1-11.8-11,31.1779,31.1779,0,0,1,0-31.6,30.5065,30.5065,0,0,1,11.8-11,36.5209,36.5209,0,0,1,17.1-3.9,37.1012,37.1012,0,0,1,17.1,3.9,29.1381,29.1381,0,0,1,11.8,11,31.1779,31.1779,0,0,1,0,31.6,30.5065,30.5065,0,0,1-11.8,11,35.35,35.35,0,0,1-17.1,3.9A36.5209,36.5209,0,0,1,83.1,152.3542Zm23.7-13.9a12.2187,12.2187,0,0,0,4.7-5.1,17.8,17.8,0,0,0,0-15.6,13.6592,13.6592,0,0,0-4.7-5.1,13.3694,13.3694,0,0,0-13.4,0,12.2187,12.2187,0,0,0-4.7,5.1,17.8,17.8,0,0,0,0,15.6,13.6592,13.6592,0,0,0,4.7,5.1,13.3694,13.3694,0,0,0,13.4,0Z" fill="#fff"/><path d="M154.3,148.9542c-5-4.9-7.6-11.7-7.6-20.5v-32.3h19.8v31.8c0,4.3.8,7.4,2.3,9.4s3.8,2.9,6.7,2.9a8.2706,8.2706,0,0,0,6.7-2.9c1.5-2,2.3-5.1,2.3-9.4v-31.8H204v32.3c0,8.8-2.5,15.6-7.6,20.5-5,4.9-12.1,7.3-21.1,7.3C166.4,156.2542,159.3,153.8542,154.3,148.9542Z" fill="#fff"/><path d="M231.7,111.5542H214.5v-15.4h54.3v15.4H251.6v43.4H231.8l-.1-43.4Z" fill="#fff"/><path d="M329.5,139.9542v15H280.6v-58.8h47.8v15H300.1v6.9H325v14.3H300.1v7.7l29.4-.1Z" fill="#fff"/><path d="M389.4,152.3542a28.64,28.64,0,0,1-11.7-10.9,32.1964,32.1964,0,0,1,0-31.8,28.64,28.64,0,0,1,11.7-10.9,35.8639,35.8639,0,0,1,16.8-3.9,37.2993,37.2993,0,0,1,15.3,3,28.0314,28.0314,0,0,1,11.1,8.7l-12.5,11.2q-5.4-6.9-12.9-6.9a13.0373,13.0373,0,0,0-10,4c-2.5,2.7-3.8,6.2-3.8,10.7s1.3,8.1,3.8,10.7a13.0373,13.0373,0,0,0,10,4q7.35,0,12.9-6.9l12.5,11.2a28.0314,28.0314,0,0,1-11.1,8.7,37.2993,37.2993,0,0,1-15.3,3A35.8639,35.8639,0,0,1,389.4,152.3542Z" fill="#fff"/><path d="M484.2,144.6542H461.9l-3.9,10.2H437.8l25.7-58.8H483l25.7,58.8H488.2Zm-5.4-14.2-5.7-14.8-5.7,14.8Z" fill="#fff"/><path d="M524.4,148.9542c-5-4.9-7.6-11.7-7.6-20.5v-32.3h19.8v31.8c0,4.3.8,7.4,2.3,9.4s3.8,2.9,6.7,2.9a8.2706,8.2706,0,0,0,6.7-2.9c1.5-2,2.3-5.1,2.3-9.4v-31.8h19.5v32.3c0,8.8-2.5,15.6-7.6,20.5s-12.1,7.3-21.1,7.3C536.5,156.2542,529.4,153.8542,524.4,148.9542Z" fill="#fff"/><path d="M597.6,154.6542a40.4919,40.4919,0,0,1-11.4-4.4l6.4-14.4a42.0912,42.0912,0,0,0,9.4,3.9,36.2268,36.2268,0,0,0,10,1.5,16.551,16.551,0,0,0,5.9-.8,2.5137,2.5137,0,0,0,1.8-2.4,3.1072,3.1072,0,0,0-2.3-2.8,48.27,48.27,0,0,0-7.6-2,92.108,92.108,0,0,1-11.3-3.1,19.2907,19.2907,0,0,1-7.9-5.4,14.846,14.846,0,0,1-3.4-10.1,17.2284,17.2284,0,0,1,3.1-10.1,20.6792,20.6792,0,0,1,9.3-7.1,39.1364,39.1364,0,0,1,15-2.6,52.9193,52.9193,0,0,1,11.9,1.3,37.97,37.97,0,0,1,10.3,3.8l-6,14.4c-5.8-2.9-11.2-4.4-16.4-4.4-5.1,0-7.6,1.2-7.6,3.7,0,1.2.8,2.1,2.3,2.6a48.8617,48.8617,0,0,0,7.5,1.9,67.9688,67.9688,0,0,1,11.3,2.9,19.7146,19.7146,0,0,1,8,5.3c2.3,2.5,3.4,5.8,3.4,10.1a16.9247,16.9247,0,0,1-3.1,10,20.68,20.68,0,0,1-9.3,7.1c-4.1,1.8-9.1,2.6-15,2.6A56.4927,56.4927,0,0,1,597.6,154.6542Z" fill="#fff"/><path d="M700.7,139.9542v15H651.8v-58.8h47.8v15H671.3v6.9h24.9v14.3H671.3v7.7l29.4-.1Z" fill="#fff"/></svg>