<?xml version="1.0" encoding="utf-8"?>
<!-- Generator: Adobe Illustrator 24.0.1, SVG Export Plug-In . SVG Version: 6.00 Build 0)  -->
<svg version="1.1" xmlns="http://www.w3.org/2000/svg" xmlns:xlink="http://www.w3.org/1999/xlink" x="0px" y="0px" width="700.7px"
	 height="257px" viewBox="0 0 700.7 257" enable-background="new 0 0 700.7 257" xml:space="preserve">
<g id="Layer_2">
</g>
<g id="Layer_1">
	<title>routecause</title>
	<g>
		<path fill="#C6C6C6" d="M438.1,97.8c6.3,16.8,7.3,34.9,2.8,52.3l10.6,6.3c6.3-21.3,5.3-43.7-2.8-64.3l14.8-8
			c10.7,25.9,11.7,54.4,2.8,81.1l5.2,3.1c9.9-28.6,8.9-59.3-2.7-87.1L469,81l-0.3,0.1c0,0,0,0,0,0l-5.5,2.3c0,0,0,0,0,0l-106.8,45
			l15.1,5.5L438.1,97.8z"/>
		<path fill="#C6C6C6" d="M356.4,128.5l0,0.1l0,0l-5.7,15.1l-23.3,7l-9.7,56.2c-18.2-9-32.1-23.7-40.2-41.1l-11.5,3.5
			c9.6,21.5,26.9,39.6,49.6,49.8l-2.9,16.9c-27.3-11.1-49-31.8-61.4-58.7c-0.5-1.1-1-2.1-1.4-3.2l-5.3,1.6L356.4,128.5l-15.1-5.4
			l-66.5,36.2c-7.1-18.9-7.7-40.4-0.2-60.8c0,0,0,0,0-0.1c23.5,8.6,50.4,18.6,66.7,24.6l-7-23.4l-56-9.6c9-18.2,23.7-32.1,41-40.4
			L315.8,38c-21.5,9.7-39.5,27-49.8,49.8l-16.9-2.9c11.1-27.4,31.8-49.2,58.7-61.7c1-0.5,2.1-0.9,3.1-1.4l-1.7-5.7
			c-1.3,0.6-2.6,1.1-3.9,1.7c-28.6,13.3-50.6,36.7-62.2,66l-14.9-2.6c0,0,5.4,2,13.9,5.1c0,0,0,0.1,0,0.1
			c-10.7,29.2-10,60.7,1.9,89.2l1.5-0.6l-1.5,0.8l0,0c0,0,0,0,0,0l-0.4,0.2l0.4-0.2c0.6,1.3,1.1,2.6,1.7,3.9
			c13.2,28.7,36.5,50.7,65.8,62.2l-2.6,15c0,0.1,43.7-118.6,47.1-127.8l-5.3,14.5l36,66.6c-16.7,6.3-34.8,7.3-52,2.9l-6.3,10.6
			c9.1,2.7,18.5,4,27.8,4c12.3,0,24.6-2.3,36.3-7l8,14.7c-24.9,10.4-53.4,12.1-80.8,3l-3.1,5.2c13,4.5,26.3,6.6,39.4,6.6
			c16.4,0,32.4-3.4,47.2-9.6l-0.3-0.6l0.6,1.1L356.4,128.5z M247.7,88.6C247.7,88.6,247.8,88.5,247.7,88.6c4.7,1.6,10,3.6,15.7,5.7
			c0,0,0,0.1,0,0.1c-8.7,23.8-7.8,48.8,0.8,70.6l-14.8,8C238.2,146,237.6,116.2,247.7,88.6z"/>
		<path fill="#C6C6C6" d="M484.5,175.8c0.1,0-79.3-29.2-113.1-41.6l7,23.4l56,9.6c-8.7,17.7-23,31.8-41,40.3l3.5,11.5
			c0.4-0.2,0.7-0.3,1.1-0.5c21.8-10.2,38.9-27.5,48.7-49.3l16.9,2.9c-11.9,29.3-34.6,51.3-61.8,62.9l1.7,5.7
			c29.2-12.3,53.6-36,66.1-67.6L484.5,175.8z"/>
		<path fill="#C6C6C6" d="M358,124l4-10.6l23.3-7l9.7-56.3c17.7,8.7,31.8,23.1,40.3,41.2l11.5-3.5c-0.2-0.4-0.3-0.7-0.5-1.1
			c-10.1-21.9-27.4-39-49.2-48.8l2.9-16.9c27.3,11.1,49,31.8,61.4,58.7c0.5,1,0.9,2.1,1.4,3.1l5.7-1.7c-0.5-1.3-1.1-2.6-1.7-3.9
			c-13.2-28.7-36.5-50.7-65.8-62.2l2.6-15C403.7,0,366.4,101.6,358,124z"/>
		<path fill="#C6C6C6" d="M356.4,128.4L356.4,128.4C356.4,128.4,356.4,128.4,356.4,128.4l5.5-15l-36-66.7
			c16.3-6.1,34.4-7.5,52.1-2.9l6.3-10.6c-21.7-6.4-44.2-4.9-64.1,3l-8-14.8c14.2-5.9,29.2-8.9,44.3-8.9c12.3,0,24.6,2,36.5,6
			l3.1-5.3c-28.5-9.8-59-8.8-86.8,2.9l0,0.1l-0.2-0.4l47.2,112.7L356.4,128.4L356.4,128.4z"/>
	</g>
	<path d="M25.2,140.2h-5.4V155H0V96.2h28.3C33.2,96,38,97,42.5,98.9c3.8,1.6,7,4.3,9.3,7.7c2.2,3.5,3.4,7.6,3.3,11.8
		c0.2,7.8-4.1,15-11.1,18.5L56.3,155H35.2L25.2,140.2z M33.1,113.3c-1.3-1.2-3.4-1.8-6-1.8h-7.2v13.8h7.2c2.7,0,4.7-0.6,6-1.8
		C35.8,120.6,35.8,116.1,33.1,113.3z"/>
	<path d="M83.1,152.4c-4.9-2.5-9-6.3-11.8-11c-5.7-9.8-5.7-21.8,0-31.6c2.9-4.7,7-8.5,11.8-11c5.3-2.7,11.2-4,17.1-3.9
		c5.9-0.1,11.8,1.3,17.1,3.9c4.9,2.5,9,6.3,11.8,11c5.7,9.8,5.7,21.8,0,31.6c-2.9,4.7-7,8.5-11.8,11c-5.3,2.7-11.2,4.1-17.1,3.9
		C94.3,156.4,88.4,155,83.1,152.4z M106.8,138.5c2-1.2,3.7-3,4.7-5.1c2.4-4.9,2.4-10.7,0-15.6c-1.1-2.1-2.7-3.8-4.7-5.1
		c-4.1-2.4-9.3-2.4-13.4,0c-2,1.2-3.7,3-4.7,5.1c-2.4,4.9-2.4,10.7,0,15.6c1.1,2.1,2.7,3.8,4.7,5.1
		C97.5,140.9,102.7,140.9,106.8,138.5z"/>
	<path d="M154.3,149c-5-4.9-7.6-11.7-7.6-20.5V96.2h19.8V128c0,4.3,0.8,7.4,2.3,9.4s3.8,2.9,6.7,2.9c2.6,0.1,5-0.9,6.7-2.9
		c1.5-2,2.3-5.1,2.3-9.4V96.2H204v32.3c0,8.8-2.5,15.6-7.6,20.5c-5,4.9-12.1,7.3-21.1,7.3C166.4,156.3,159.3,153.9,154.3,149z"/>
	<path d="M231.7,111.6h-17.2V96.2h54.3v15.4h-17.2V155h-19.8C231.8,155,231.7,111.6,231.7,111.6z"/>
	<path d="M329.5,140v15h-48.9V96.2h47.8v15h-28.3v6.9H325v14.3h-24.9v7.7L329.5,140L329.5,140z"/>
	<path d="M389.4,152.4c-4.9-2.4-8.9-6.2-11.7-10.9c-5.6-9.9-5.6-21.9,0-31.8c2.8-4.7,6.8-8.5,11.7-10.9c5.2-2.6,11-4,16.8-3.9
		c5.3-0.1,10.5,0.9,15.3,3c4.4,1.9,8.2,4.9,11.1,8.7l-12.5,11.2c-3.6-4.6-7.9-6.9-12.9-6.9c-3.8-0.2-7.4,1.3-10,4
		c-2.5,2.7-3.8,6.2-3.8,10.7c0,4.5,1.3,8.1,3.8,10.7c2.6,2.7,6.2,4.2,10,4c4.9,0,9.2-2.3,12.9-6.9l12.5,11.2
		c-2.9,3.8-6.7,6.8-11.1,8.7c-4.8,2.1-10,3.1-15.3,3C400.4,156.3,394.6,155,389.4,152.4z"/>
	<path d="M484.2,144.7h-22.3l-3.9,10.2h-20.2l25.7-58.8H483l25.7,58.8h-20.5L484.2,144.7z M478.8,130.5l-5.7-14.8l-5.7,14.8H478.8z"
		/>
	<path d="M524.4,149c-5-4.9-7.6-11.7-7.6-20.5V96.2h19.8V128c0,4.3,0.8,7.4,2.3,9.4s3.8,2.9,6.7,2.9c2.6,0.1,5-0.9,6.7-2.9
		c1.5-2,2.3-5.1,2.3-9.4V96.2h19.5v32.3c0,8.8-2.5,15.6-7.6,20.5s-12.1,7.3-21.1,7.3C536.5,156.3,529.4,153.9,524.4,149z"/>
	<path d="M597.6,154.7c-4-0.9-7.8-2.4-11.4-4.4l6.4-14.4c3,1.7,6.1,3,9.4,3.9c3.2,1,6.6,1.5,10,1.5c2,0.1,4-0.2,5.9-0.8
		c1.1-0.3,1.8-1.3,1.8-2.4c-0.1-1.3-1-2.5-2.3-2.8c-2.5-0.9-5-1.5-7.6-2c-3.8-0.8-7.6-1.8-11.3-3.1c-3-1.1-5.8-3-7.9-5.4
		c-2.3-2.8-3.6-6.4-3.4-10.1c0-3.6,1-7.1,3.1-10.1c2.4-3.2,5.6-5.7,9.3-7.1c4.8-1.8,9.9-2.7,15-2.6c4,0,8,0.4,11.9,1.3
		c3.6,0.8,7.1,2,10.3,3.8l-6,14.4c-5.8-2.9-11.2-4.4-16.4-4.4c-5.1,0-7.6,1.2-7.6,3.7c0,1.2,0.8,2.1,2.3,2.6c2.4,0.8,5,1.5,7.5,1.9
		c3.8,0.6,7.6,1.6,11.3,2.9c3.1,1.1,5.8,2.9,8,5.3c2.3,2.5,3.4,5.8,3.4,10.1c0,3.6-1,7.1-3.1,10c-2.4,3.2-5.6,5.7-9.3,7.1
		c-4.1,1.8-9.1,2.6-15,2.6C607.1,156.3,602.3,155.8,597.6,154.7z"/>
	<path d="M700.7,140v15h-48.9V96.2h47.8v15h-28.3v6.9h24.9v14.3h-24.9v7.7L700.7,140L700.7,140z"/>
</g>
</svg>
