<?xml version="1.0" encoding="utf-8"?>
<svg version="1.1" id="RegionsMap" xmlns="http://www.w3.org/2000/svg" xmlns:xlink="http://www.w3.org/1999/xlink" x="0px" y="0px"
	 width="853.3px" height="1287.6px" viewBox="0 0 853.3 1287.6" style="enable-background:new 0 0 853.3 1287.6;"
	 xml:space="preserve" preserveAspectRatio="xMidYMin">
<path id="Aberdeenshire" data-name="Aberdeenshire" d="M601.5,652.8c-4.8,9.4,5.4,7.7,0.5,15.9c-5.5,7.4,8.7,9.3,9.4,16.7c-1.9,6.3,5.7-1.6,5.3,2
	c6.2-0.1-3,3.3-2.7,4.1c-0.5,2.3-0.5,0.6-2.2,0.8c-1.8,3.5-3.2,0.6-5.8,0c-1-6.9-3.2,4.1-5.8-1.2c-6.5-12.2-12.6,5.7-18,4.5
	c-4.4-1-3.4,4-6.5,6.5c-5.3,5.6,4,3.6,6,5.3c-19.2,8.7,3.5,7.3-1.9,13.9c1.9,36.9-6.9,10.8-22.8,21.6c-6.5,1-11.2,6.9-10.6,13.5
	c-13.6,1.9-15.3,4.1-10.1,15.9c-0.3,3.8-3.5,2.4-6.3,5.3c-8.6,0.2-1.6-4.5-9.3,1.6c-3-1-6.9,0.9-10.1,0.4c-4.4,3.7-0.6-4.2-5.5-0.8
	c-1.5,4.4-8.5-2.7-8.7,4.1c-2.8,4-1.4-8.8-7-2.4c-9.2,2-1.1,14-6.2,22.8c-3.9,1.1-7.8,15,0.9,8.6c13.6,9.4,6.1-3.3,12.7,1.2
	c6.2,1.5,9.1-5.1,10.8,6.5c4.3,4.8,27.9,6.2,33.6-4.1c-1.8-5.8,13.2,4.1,15.4,2.1c13.9,11.2-7.4-19.7,39.4-14.7
	c0.8,2.2,3.9,4.7,6.9,3.7c5.9,0.2,5.9,7.5,11.5,9.4c6,56.6,61.8,24.9,61.7-13.9c24.9-45.1-10.6-14.7-22.1-27.7
	c2.1-9.1,2.8,0.2,8.2-2.9c10.7-6.1-11.1-30.9,13.7-18.4c21.6,4.7,27.3-32,43.5-42.4C743.4,625,647,671.3,601.5,652.8z M606.8,655.2
	l0.2-0.4C606.7,654.7,606.8,655,606.8,655.2z"/>
<path id="Aberdeen" data-name="Aberdeen" d="M687.9,779.2c-6.9,3.8-1.6-9-8.9-4.9c-8,0.8-12,8.6-19.7,6.9c14.1-7.1-9.3-1.8-4.1-8.2
	c-0.4-8.6,5.8,7.1,12-8.2c-10.1-12.8,1.2-19.9,10.6-10.6c2.4-1.4,14-5.7,12.2,2.4c-2.9,8.1,2.1,1.2,2.4,5.3c0.1,0.9-1,3.5,0.5,3.3
	C702.7,770.9,688.4,777.7,687.9,779.2z"/>
<path id="Angus" data-name="Angus" d="M589.3,902.9c-7.5-3.9-9.1,1.1-16.8-2c-2.1,2.3-2.7-0.6-2.4,4.1c-5.9-2.1-6.2,7.8-8.4,1.2
	c-5.2-1.7-6.6-4.7-10.8-8.6c-0.5-3.8,3.5,1.7,5.5-4.1c-11-4.4,16.6-14.5,6.5-15.5c-1.4,1.5-3.7,4.9-6.7,2.5c5.3-4.4-2-2.1-2.9-4.1
	c4.4-1.2-1.2-2.4,4.3-3.7c-3.8-10.8-10.8,8.8-28.8-26.9c11.8-19.1-14.7-11.5,13-30.2c-3.2-5.9,11,2.4,13.4,2.8
	c15.9,5.4,0.4-16.6,25.2-14.3c52.1-6.6,20.2,42.2,65.8,44.5c-2.5,6.1,1.5,14.9-7.4,18.4c-0.1,20.5-9.3,21.3-25.4,34.7
	c-5.7,14.6-11,0.8-16.1,6.1C593.3,907.2,599,900.4,589.3,902.9z"/>
<path id="Argyll_and_Bute" data-name="Argyll and Bute" d="M153.6,861.7c-9,3.4-31.4,23.3-27.4,27.4c3.6-1.1,1.3-8.7,7.2-2.4
	c1.3-0.8,0.1-4.3,2.2-2.9C136.4,888.9,161.8,871.5,153.6,861.7L153.6,861.7z M133.7,886.6c0.1,0.2,0.7,3,0.7,1.6
	C134.7,887.6,134.6,886.6,133.7,886.6L133.7,886.6z M195.2,869c-0.9,3.1-11.9,2.1-8.4,6.2c-6.9-5.8-1.5,6.5-2.7,5.3
	c-5.5-4.4-4-0.7-10.8-0.4c0.2,1.3-2.3-2.2-1.4,0.8c-0.9,8.8,7.5,1,2.9,6.5c-1,2.7-2.9,1.7-4.3,2.9c-2.9,10.9,25.4,2.6,22.6,15.1
	c2.4,3.4,12.9-0.9,16.3-3.3c6.4,6.5-9.9,10.2-14.2,10.2c-23,32.2,6.1,12.5,13.9,12.3c4.8,8.2-21.5,9.2-20.2,11.4
	c-16.5-5.6-3.3,2-8.9,2.9c-5.9,0.7,4.3-3.9-9.8-5.7c-3.8-1.2-5.9,8.6-3.8,9c0.9-0.3-4.5,4.2-1.9,2.4c-1,1,3.4,2.9,3.1,0
	c1.4,0.2,0,1.6,0,2.4c1.5-1-0.1-0.5,2.4-0.4c1.9-1.8,0,5.4,4.8,2.4c1.1-1.5-0.3,2.5,1.2,0c1.4,0.1,0.5-0.2,1-0.4
	c0.6-1.2-0.1,0.6,0.5,0.4c0.3-1.8,0.7,2.8,1,1.2c1.3,1.4,1.4-7,4.8-4.1c13.6,5.2,55.1-24.6,42.5-6.5c6.8,6.6,36-21.8,15.6-11.4
	c-11,3.4,5.8-4.7,1.9-8.5c2.5,0.3,3.9-1.3,2.2,3.2c3.7,6.5,10.7-1.5,5.5-7.3c2.6,5.8,6.8-5-0.7-5.3c-3.3-3.4-15.5-14-18-11
	C207.7,897.8,213.8,877,195.2,869z M254,916.7v0.4C254,917,254.4,916.6,254,916.7L254,916.7z M193,905.7c2.4-1.2-25.7-7.9-17.8,0
	c3.2-0.7,0.5,3.7,3.6-1.2c-0.6,2.8,2.2,2.4,3.1,4.5c-1.4,0.2,0.7,3.5,0.5-0.8c6-1.6,1.6,1.1,3.8,1.6
	C186.3,908.1,195.9,910.2,193,905.7L193,905.7z M182.4,879.2c0.3,0.1,0.2-0.2,0.2-0.4C182.4,878.7,182.5,879,182.4,879.2z
	 M183.6,878.4l-0.3-0.4C183.4,878.2,183.3,878.5,183.6,878.4z M185.1,872.7c0,0.2-0.1,0.5,0.3,0.4
	C185.3,872.9,185.4,872.6,185.1,872.7L185.1,872.7z M306.8,874.3c-0.9,19.8-15.9-9.5-25.2,17.2c-0.1,1.4,2.2-1.9,0.7,1.6
	c5-0.9,0.4,0,3.8,2.8c5,0.8,10.7-7.6,16.8-5.3c-6.8,0.1-14.6,13.5-19.7,5.3c1.3-6.9-8.6,7.6-7.7,9.8c0.6-0.4,2.4-3.3,2.2-0.4
	c-2,1.4,0.4,1.2,1,0c1.1-4.5,5.2-2.6,5.3,2c-3.2,4.2,0.3,2.4,3.6,2.9c5.6-7.4,15.6,5.3,22.6-0.4c-0.2-7.5,13.4-10.4,8.9-18.3
	c4.4-3.5-1-7.1,3.1-11c3.8-1.6-6-3.9-7-2.4C312.7,874.3,313.3,875.1,306.8,874.3z M187.2,875.5l0.3,0.4
	C187.1,876,187.2,875.7,187.2,875.5L187.2,875.5z M376.1,877.6c-18.1,10.3-39.2,8.8-55.4,19.6c-7.5,19.6-17.7,13.5-28.1,14.7
	c-20.4-9.4-23.3,19.6-25.4,20.4c-3.1,4.4-18.3,9.5-12,12.2c1.5,13.2,4.2-0.8,5.5-1.6c1.5-4.2-0.9,5.5,0.7,3.3
	c-2.2,13.7-0.3,3.7,4.3,6.1c5.9-4.7,11.1-0.3,1.4,2c-8.2,4.8,3.1-0.3-2.6,8.2c-0.5,3.9-5.9,7.8-4.8,12.2c1.4-2.4,1.1-0.1-0.2,0.4
	c-3.4,8.6,10.8-12.6,11.3-9c0.2,5.4-11.8,15.6-4.1,18.4c-5,0.1-23.5,26.1-17.3,28.5c-5.5,4.9-0.4,9.2,1.9,0.4
	c0.2-3,5.6-17.2,2.2-4.9c7.6-9.8,1.8-6.9,10.1-12.2c2.3,3.5-18.3,20.2-13,31.8c24-23.2-12.7,17.5,8.2,23.2c-3.4,6.5,5.7-0.1,7.4-2
	c31.7-30.2-13.6,13.5-14.9,25.3c-2.9,15.9-6.4,25.7-5.5,41.2c0.9,10.8-7.1,8-10.1,15.9c-2.1,16.4-0.2,25.5,17,15.9
	c9.7,4.3,22.9-12.4,13.7-20c-0.3-4-2.2-2,0.7-3.2c0.5-3.3-7.6,5.6-7.4-1.2c13.9,1.4,9-32.2,17.3-30.6
	c-14.8-31.2,30.7-35.7,11.8-55.5c-4.6-2.8-19.8-43.4-3.9-33.4c14.2-12.7,29.9-42.8,55.9-54.3c-19.8,15.7-71,69.4-43,86.9
	c19.3,7.8,6.7,0.9,6-11.4c7.4-2.1,2.7-18.5,7.4-6.5c23.3,20.4,5.1-6.9,6.7-14.3c9.7,19.2,12.6,47.5,25.2,10.2
	c4.4-5.9-8.6-5.4-3.4-7.8c10.9,6,2.6-8,4.3-13c9.5-11-1.9-6.7-0.3-15.1c3.8-2.1-3.4-8,0.5-8.2c6.4,30.1,6.8,1.8,17.5-6.1
	c-0.6,4.8-21.6,30.5-10.8,43.2c2.1,3,14.2,0.2,8.9-2.9c-9.9-6-12-27.3,0.5-2c11.9,4,4.6,8,13.9,12.2c-1.6-0.7-5.9,0.6-2.4,1.6
	c8.8,7.8,12-8.9,2.6-11.1c0.1-4.6,2,1.3,4.6-2.8c4.7-1.9-1.6-4.5-0.2-8.2c2.6-5.4,6.9-13.7-1.9-14.3c-1.8-5.1-12.7-31.3-5.3-32.2
	c5.5-2.1-2.2-2.6,0.5-4.9c1.3-1.7-1.6-1.7,1.2-4c1.4,2.3,1.7-2.7-3.4-0.8c-0.4,0.9-3.3-3-2.9-0.4c-0.6,2.5-0.3-1.4-1.7-0.8
	c-0.3-1.9-8.9,4.8-7-1.2c0.9-7.4-17.8-4.5,4.3-21.2c5,4.1,1.9-6.3,3.8-4.1c2.8-3.3,6,1.5,7.4-2.4c7.8-3.6-6.3,0.2-2.2-6.1
	c9.1-9.1-5-6.4-2.2-11C380.7,887.1,393.8,883.3,376.1,877.6z M364.8,1004.5l-0.3,0.4C364.9,1005,364.8,1004.7,364.8,1004.5z
	 M309.7,1013.4l-0.3,0.4C309.7,1014,309.6,1013.6,309.7,1013.4z M309.2,1018.3c0,0.2,0,0.6,0,0.8
	C309.5,1019.3,309.5,1018.1,309.2,1018.3L309.2,1018.3z M266.9,1116.2c0,0.2-0.1,0.5,0.3,0.4
	C267.1,1116.4,267.2,1116.1,266.9,1116.2L266.9,1116.2z M256.1,949.8c-4-2.9-1.9,5.9-3.6,6.1C251.1,966.9,259.4,971.2,256.1,949.8z
	 M256.6,952.7c2.7,2.5,2.7-4.9,1.4-2.1C257,950.5,257.2,951.9,256.6,952.7z M253.5,944.5c-0.6-1-1.6-0.9-1.7,0.8
	C252.3,944.4,253.5,945.4,253.5,944.5L253.5,944.5z M184.6,879.6c0.3-0.1,0.2,0.2,0.2,0.4L184.6,879.6z M185.1,881.3
	c0.9,0.8,1.8,1.4,2.9,2C188.4,884.8,185.1,882.4,185.1,881.3L185.1,881.3z M186.5,882.5l-0.2-0.4
	C186.3,882.2,186.2,882.6,186.5,882.5L186.5,882.5z M285.2,881.7c-1.4,0.6-2.3,2.2-0.5,3.7C285.2,885.3,287.6,881.1,285.2,881.7
	L285.2,881.7z M124.1,886.6c-0.2,2-3.5,0.8-2.2,2.8C122.8,888.4,127.1,888.3,124.1,886.6z M280.3,888.6
	c-5.9,3.5-14.7,10.6-17.5,16.7C255.2,917.4,280.8,893.4,280.3,888.6z M119.3,889.4c-2.1,1-3.6,6.6-4.1,2.9c-0.3-1.6-0.5,3.3-1.4,1.2
	c-5-3.7-7.8,7.4-13.9,1.6c-12.5,0.1-10.8,13.9-1.9,18c6.4,3.5,2.9-4.8,5.8-7.8c3.2-4.6,11.4,2,9.6-6.1c-3.3-2.3,6.2-4.6,3.8-0.8
	c0.1,0.2,2,1.4,1.2,0.4C120,892.3,127.9,900.2,119.3,889.4L119.3,889.4z M199.9,907.3c-0.1,0.5-0.5,0.8-0.9,0.8
	C198.3,911.1,204.9,908.2,199.9,907.3L199.9,907.3z M178.6,910.6c-0.4,2.1,2.2,2.9,1.9,0.4C179.9,910.7,179.3,910.6,178.6,910.6
	L178.6,910.6z M192,911.9c-1,1.5-2.1,2.3-0.5,3.2C191.8,913.1,195.1,912.3,192,911.9L192,911.9z M271.7,916.7
	c-0.7,3.8-17.2,5.7-6.7,10.6C264.4,929.9,275.8,916.4,271.7,916.7L271.7,916.7z M277,929c4.2,1.2-9.2,5.4-7.2,4.5
	C271.8,928.4,274.4,933.7,277,929z M164.7,932.3c-7.1,1.7-4.8,2.7-6,6.5C154.6,944.9,166.5,937.4,164.7,932.3L164.7,932.3z
	 M251.8,939.2c-0.2,0.8-1.9,0.6-1.2,2.1C251.1,941.4,253,939,251.8,939.2L251.8,939.2z M177.9,948.1c0.2,0,0.8,1,0.2,0.8
	C178.2,948.5,177.8,948.6,177.9,948.1L177.9,948.1z M342.8,948.6c0,0.2,0.1,0.5-0.3,0.4L342.8,948.6z M240.5,953
	c0,0.6-1,0.6-1.4,0.9C234.8,958,244.6,954.4,240.5,953z M237.9,955.5c-0.3,0.4-1,0.2-1,0.8C236,957.2,238.2,956.5,237.9,955.5z
	 M245.1,955.1c-1.7,4,1.7,3.3,1,1.2C245.2,956.5,245.8,955.1,245.1,955.1L245.1,955.1z M324,955.5c0.3-0.1,0.2,0.2,0.3,0.4
	C324,956,324,955.7,324,955.5z M248.4,955.9c-0.2,1.8-4.6,6.7-1.7,5.7c0.8-3,0.6,3.3,1.7,1.2C230.8,975.5,257.8,976.8,248.4,955.9
	L248.4,955.9z M235.9,956.7v0.8C236.3,957.7,236.3,956.6,235.9,956.7L235.9,956.7z M258.5,957.1c-2.6,5.5,1.8,9.8,2.4,4.5
	C260.9,957.9,260.7,958.3,258.5,957.1L258.5,957.1z M235.5,957.5c-0.8,0.7-2.6,1.9-2.2,2.9C233.8,959.3,236.4,958.9,235.5,957.5
	L235.5,957.5z M267.9,970.2c-1.1,1.3-1.9,2.8-2.4,4.5C266.4,974.6,269.4,970.1,267.9,970.2L267.9,970.2z M246.3,973.9
	c-7.6,8-26.5,17.2-34.3,31.8c-7.6,13,23-0.4,8.9,8.2c-19.3-5.9-29.4,30.1-12.5,33c15.7,6.6,2.9-17.4,15.6-15.1
	C222.4,1019.4,254,989,246.3,973.9L246.3,973.9z M229.7,1017.5c0.3,0.1,0.3-0.6,0-0.4V1017.5z M225.4,1028.9
	c-0.3-0.1-0.2,0.2-0.3,0.4C225.5,1029.5,225.4,1029.1,225.4,1028.9L225.4,1028.9z M225.2,1029.4c-0.3-0.1-0.2,0.2-0.3,0.4
	C225.2,1029.8,225.2,1029.6,225.2,1029.4L225.2,1029.4z M225.2,1027.7l-0.3-0.4C224.9,1027.5,224.8,1027.8,225.2,1027.7
	L225.2,1027.7z M206.9,1047.7c-1.1-0.1-0.5,0.2-0.5,0.8C206.7,1048.5,206.9,1048,206.9,1047.7L206.9,1047.7z M209.1,1015.9l0.3-0.4
	C209,1015.3,209.1,1015.7,209.1,1015.9L209.1,1015.9z M215.1,1000.4c0.1-0.4-0.1-0.4-0.5-0.4
	C214.5,1000.4,214.7,1000.4,215.1,1000.4L215.1,1000.4z M214.6,1000.4c-0.3-0.1-0.2,0.2-0.3,0.4
	C214.7,1000.9,214.6,1000.6,214.6,1000.4L214.6,1000.4z M192.5,977.1c-7.4,7.5-20.3,19.3-12.5,20.8c-7.9,6.5,4.9,2.8-3.1,7
	c-1.6,3.5,7.1-2,7-4.1c0,1.4,1.3-0.9,1.2,0.4c-1.2,1.8,2.6-0.7,0.5-1.2c1.7-3.8,4.8-4.2,2.4-7.4
	C186.5,992.1,198.8,979.8,192.5,977.1L192.5,977.1z M177.4,1002l0.3,0.4C177.6,1002.2,177.7,1001.9,177.4,1002L177.4,1002z
	 M177.4,997.9c-0.4,0-0.9-0.2-0.7,0.4C177.1,998.3,177.5,998.5,177.4,997.9L177.4,997.9z M181,998.3c0.4,0,0.5,0,0.5,0.4
	C181.1,998.8,180.9,998.8,181,998.3L181,998.3z M179.8,999.1h1C180.6,999.7,179.6,999.8,179.8,999.1L179.8,999.1z M177.6,1000.8
	c0.4,0,0.8-0.1,1,0.4C178.2,1001.1,177.5,1001.5,177.6,1000.8L177.6,1000.8z M184.1,1003.2c-0.5,1.1-1.2,1.5-0.9,2.4
	C183.4,1005.5,185.5,1003.4,184.1,1003.2L184.1,1003.2z M178.6,1004.9c0.3-0.1,0.2,0.2,0.2,0.4
	C178.5,1005.3,178.6,1005.1,178.6,1004.9L178.6,1004.9z M228.3,1008.5c0.5,0.4,0,1.7-0.5,0.8
	C227.2,1010.5,227.5,1009.1,228.3,1008.5L228.3,1008.5z M226.8,1009.8c0.9,0.2-1.3,1.5-1.2,0.4
	C226.1,1010.2,226.7,1010.4,226.8,1009.8L226.8,1009.8z M221.6,1011v0.4C221.9,1011.5,221.9,1010.9,221.6,1011L221.6,1011z
	 M225.4,1011c0.5-0.1,0,0.9-0.3,0.8C225.1,1011.3,225.5,1011.5,225.4,1011L225.4,1011z M212.7,1011.4c0,0.2,0,0.6,0,0.8
	C213,1012.4,213,1011.2,212.7,1011.4L212.7,1011.4z M217.5,1013.4c0,0.2-0.1,0.5,0.3,0.4C217.7,1013.6,217.8,1013.3,217.5,1013.4
	L217.5,1013.4z M213.4,1014.2c0,0.2-0.1,0.5,0.3,0.4C213.6,1014.4,213.7,1014.1,213.4,1014.2L213.4,1014.2z M375.2,1014.7
	c0.6-0.2-0.1,1,0.5,0C375.8,1015.3,375.3,1015.1,375.2,1014.7L375.2,1014.7z M195.4,1017.5c-9,1.7-11.6,7.6-20.6,13.1
	c-4.4-2.6-3,0.5-2.7,1.6c0.3-12.4-8.7,5.6-14.4,2.4c-5.2,2.3,0.1,9.1-5,11.8c-2.5,4.2,5.2,0.4,1.2,10.2c-7,2.4-0.7,9.9-7,11.4
	c8.3,13.6,18.1-11.8,23-18.8c25.1,2-13.8,11.2,4.3,15.1c2,2.2,7.5,11.5,3.1,12.6c-7.9,0.6-10.6,16.3,0,14.7c18.5-20.8,2-2,22.3-13.5
	C217.7,1075.2,194.8,1041.7,195.4,1017.5L195.4,1017.5z M206.4,1072.6c-0.3-0.1-0.2,0.2-0.3,0.4
	C206.5,1073.1,206.4,1072.8,206.4,1072.6L206.4,1072.6z M204.8,1074.6c0,0.2-0.1,0.5,0.3,0.4C205,1074.8,205.1,1074.5,204.8,1074.6z
	 M205,1074.6c0.3,0.1,0.3-0.6,0-0.4V1074.6z M200.9,1079.5c0,0.2-0.1,0.5,0.3,0.4C201.1,1079.7,201.2,1079.4,200.9,1079.5
	L200.9,1079.5z M169.9,1089.3c-0.3-0.1-0.2,0.2-0.2,0.4L169.9,1089.3z M172.8,1056.7c0-0.2,0.1-0.5-0.2-0.4L172.8,1056.7z
	 M158.4,1067.7l-0.3,0.4C158.5,1068.2,158.4,1067.9,158.4,1067.7L158.4,1067.7z M155.5,1037.9c0-0.2,0.5-0.5,0-0.4
	C155.2,1037.4,155.2,1038,155.5,1037.9L155.5,1037.9z M155.3,1037.9c-0.3-0.1-0.2,0.2-0.3,0.4
	C155.4,1038.4,155.3,1038.1,155.3,1037.9L155.3,1037.9z M164.2,1032.6l0.3-0.4C164.1,1032.1,164.2,1032.4,164.2,1032.6L164.2,1032.6
	z M311.1,1019.5v0.4C311.4,1020.1,311.4,1019.4,311.1,1019.5z M310.1,1020c-6.6,5.8-1.8,15.2,5.3,16.3c2.6,1.1-0.8,5.4,0,8.2
	c4.2,2.4,0.5,3.5,3.1,7.8c5.4-3.7,6.7,7.4,9.3,9c2.6,3.1,6.1-2.2,2.7-4.5c-3.1-4.8,4.4,1.4,1-9.8c-2.3-2.5-0.4-7.7-2.4-9.8
	c-7,4-0.9-3.6-6.3-3.2c-2.2-3.5,5.9-1.8-4.1-7C316.1,1024.2,313.3,1021,310.1,1020L310.1,1020z M330.3,1054.2l-0.3,0.4
	C330.4,1054.8,330.3,1054.4,330.3,1054.2z M311.6,1020c-0.1,0.4,0.1,0.5,0.5,0.4C312.1,1020,312,1019.9,311.6,1020L311.6,1020z
	 M170.4,1024.9c-0.1,0.8-1.4,0-1.2,0.8c-0.5-0.1,0.2,0.5,0,0.8c-0.6-0.1-0.6,0.5,0,0.4C170.5,1026.3,172.4,1024.6,170.4,1024.9z
	 M168,1027.3c0.2,0.4-0.7,0.8,0,0.8C168.7,1028.4,168.7,1027,168,1027.3L168,1027.3z M167.8,1028.1c-0.3,0-0.5,0-0.5,0.4
	C167.7,1028.5,168.3,1028.7,167.8,1028.1L167.8,1028.1z M172.6,1030.2c0.3-0.1,0.3,0.6,0,0.4V1030.2z M170.4,1031.8
	c0.3-0.1,0.2,0.2,0.2,0.4C170.4,1032.3,170.5,1032,170.4,1031.8z M172.6,1032.2c1.2,0.8,0.1,3-0.5,3.3
	C172.3,1034.4,173.4,1033.6,172.6,1032.2z M222,1033.4c0.1,0.5-0.4,0.4-0.3,0.8C222.4,1034.5,222.5,1033.4,222,1033.4z
	 M171.4,1035.5c0.8,0.1-0.5,0.6-0.2,1.2C170.5,1036.7,171.3,1035.9,171.4,1035.5z M219.4,1035.8c-0.1,0.4,0.1,0.5,0.5,0.4
	C219.9,1035.9,219.8,1035.8,219.4,1035.8z M220.1,1036.3c-0.1,0.4,0.2,1.3,0.2,0.4C220.9,1036.7,220.6,1036.1,220.1,1036.3
	L220.1,1036.3z M171.4,1037.1c0.3-0.1,0.2,0.2,0.3,0.4C171.3,1037.6,171.4,1037.3,171.4,1037.1L171.4,1037.1z M171.4,1037.9
	c0.3-0.1,0.2,0.2,0.3,0.4C171.3,1038.4,171.4,1038.1,171.4,1037.9z M219.2,1037.9c0,0.7-0.7,0.7-0.5,1.6
	C218.9,1039.5,220.3,1037.7,219.2,1037.9z M312.8,1045.3c-1,2.5,0.5,8.3,1.9,4.5C315,1049.2,313.9,1045.2,312.8,1045.3z
	 M211.7,1048.1c0,0.5,0.1,1.2,0.5,1.2C212,1048.6,213,1048,211.7,1048.1L211.7,1048.1z M170.9,1057.1c0,0.2-0.1,0.5,0.3,0.4
	C171.2,1057.3,171.2,1057,170.9,1057.1L170.9,1057.1z M244.6,1060.8c-0.4,2.1-2.2-0.1-2.4,2.4c4.3-1.6-7.3,11.4-2.4,10.2
	c1.4-0.1-3.1,8.8,2.4,2.9c3.1-1,0-4.8,1.9-4.9c0.5-0.3,2.4-2.6,0.9-1.6C240.9,1067.7,248.7,1061.8,244.6,1060.8L244.6,1060.8z
	 M146.2,1067.7v0.4C146.5,1068.2,146.5,1067.5,146.2,1067.7L146.2,1067.7z M147.4,1070.2c0,0.2-0.1,0.5,0.3,0.4
	C147.6,1070.3,147.7,1070.1,147.4,1070.2L147.4,1070.2z M147.6,1070.5c1.4,2.2-0.6,2.5,1.7,2.4
	C149.2,1072.7,148.5,1070.4,147.6,1070.5L147.6,1070.5z M207.2,1072.6c0.1,0.4,0.2,1.1,0.5,0.4
	C207.7,1074.2,208.4,1072.1,207.2,1072.6L207.2,1072.6z M207.9,1073.4c-0.1,0.6,0.3,0.4,0.7,0.4
	C208.7,1073.3,208.3,1073.4,207.9,1073.4L207.9,1073.4z M205.9,1075.4c0.1,0.4-0.7,0.9,0.3,0.8
	C206.7,1076.3,206.6,1075.1,205.9,1075.4L205.9,1075.4z M205.7,1076.3c-0.3-0.1-0.2,0.2-0.3,0.4
	C205.8,1076.7,205.7,1076.5,205.7,1076.3L205.7,1076.3z M205.5,1076.6c-0.3-0.1-0.2,0.2-0.3,0.4
	C205.6,1077.2,205.5,1076.9,205.5,1076.6L205.5,1076.6z M187.2,1082.8c0,0.2-0.1,0.5,0.3,0.4C187.5,1083,187.5,1082.7,187.2,1082.8
	L187.2,1082.8z M193.9,1083.2c0,0.9-1.2,0.7-1.7,1.2C192.6,1085.9,196.5,1083.1,193.9,1083.2L193.9,1083.2z M170.2,1085.6
	c0,0.2-0.1,0.5,0.3,0.4C170.4,1085.8,170.5,1085.5,170.2,1085.6L170.2,1085.6z M192.8,1086.8c0,0.2-0.1,0.5,0.3,0.4
	C193,1087.1,193.1,1086.7,192.8,1086.8z M271,1110.5v0.4C271,1110.8,271.5,1110.4,271,1110.5L271,1110.5z M262.8,1150.9
	c0,0.5,0.2,1.6,0.5,0.8C264,1151.8,263.1,1150.9,262.8,1150.9L262.8,1150.9z M264.8,1152.1c-0.1,0.4,0.1,0.5,0.5,0.4
	C265.3,1152.1,265.1,1152.1,264.8,1152.1z M261.4,1152.6c-3.5,2.2,2.1,3.1,2.6,0.8C263.3,1151.9,262.2,1154,261.4,1152.6
	L261.4,1152.6z"/>
<path id="Edinburgh" data-name="Edinburgh" d="M528.3,1042.4c-2.7-7.7-3.5-10,0.5-15.5c2.8-4-10.3,0.4-5.3-4.9c2.9-7.8-10.4-17.6,14.4-17.1
	c10.2,7,13.7,1.4,19,2.9c-0.1,3.2,15.5,9.3,7.4,11.4c-6.2,1.4,3.3,7.2-1,6.5C547.6,1027.6,543.2,1032.6,528.3,1042.4z"/>
<path id="Clackmannanshire" data-name="Clackmannanshire" d="M473.8,965.3c16.8-11.7,7.8,6.2,23.8-1.6c4.9,0.6,1.5-3.6,8.4,0.8c1.8,0.4-0.5,0.3-1,0.8
	c0.2,1.6,0.8,1.3-0.5,2c-2.4-0.4,0.4,1.2-0.7,2c-2.3,0.4-7.2,1.5-6,3.3c2.2,1.5-1.5,4.2,1.4,4.9c1.4,0.3-5.5,1.1-3.1,2.9
	c7.6,2.2,0.2,2.6-1.7,2c-13.1,3.7-4.3,14.1-16.3,0c-3.8,6.6-4.4-8.2-6.7,0.4c-2.9,0.1,0.6-1.7-0.5-2.4c0-1.4-1.6,0.8-1.4-0.4
	c-0.4,0-1.2-2.9-0.5-1.6c0.7-2.5,5.8-0.4,0.5-4.5C473.3,973.6,472.2,969.5,473.8,965.3z"/>
<path id="Dumfries_and_Galloway" data-name="Dumfries and Galloway" d="M456.3,1115.9c-16.4,5.4-12.4,50.6-26.2,30.2c-18.8-8.7-26.4,49.3-29.5,31.4
	c-56.5,10.6,3.3,24.4-42.7,27.4c0.3-5.7-5.1,1.7-5-1.2c-8.8-1.6-2.2,3.9-8.4-4.5c-4.5-3.6-3.1,5.5-6.5,7
	c-22.3,9.1,6.4,21.8-9.6,24.1c-9-6.5,3-28.7-15.8-18.8c-10.9,23.6,16.9,42.8,25.2,57.1c-1.3,9.4-2.3,17.7,12.5,19.2
	c-41.1-124,81.6,56.7,60.2-44.1c-12.5-9.4,22.6,5.9,17.8,8.6c3.2-2.9,2.5,1.6,6.3,4c3.8,5.1,4.2-1,5,1.6c5.5,5.2,3.1,0.9,4.6-4.1
	c7.4,14.8,30.6-3.5,35-9.3c32.3-1.7,35.7-20.4,48-17.2c-0.9-6.8,11-9.2,6.7-7.3c-10.5,5.4,16.6-3.4,21.3,0.8
	c5.2,4.7,3.4-3.5,8.2-3.2c6.3,4.4,8.3-11.3,9.4-13.1c-7.9-9.4,11.2,2.3,11.7-7.3c21-9.8-5.1-13.3,8.2-32.6c2.3-3.7-8.1,1.2-6.2-2.5
	c-0.3-3.2,5.7-4,3.1-6.9c-12.3-9.5-12.6,12-22.6-8.6c-3.7-3.5-3.1-13.3-11.8-6.2c-3.6-11-10.1-1.3-15.8,0.4
	c-7.6-10.7,15.9-18.3,2.4-18.8c-12.1-5-0.9,7.5-17.5,4.1c-29.4,2.4-10.7,14.3-22.3,18.8C494,1170.4,486.5,1110.1,456.3,1115.9z"/>
<path id="Dundee" data-name="Dundee" d="M575.6,901.6c0.3,1.1,24.2-1.9,19.4,4.1c6.2,5.3-15.3,1.1-17.8,6.1
	C571.4,914.9,555.9,903.7,575.6,901.6z"/>
<path id="East_Ayrshire" data-name="East Ayrshire" d="M425.3,1095.4c2.9,4,12.1-2.8,20.2-1.6c5-8.8,6.4,1.9,11.8,1.2c7.6,5.9-10.1,13.4-3.8,19.2
	c7.8,8.9-19.2,11.8-9.8,25.3c-9.1,29.6-10.5-3.4-20.4,9.4c-13-8.9-19.6,50.4-22.8,28.6c-8.5-5.5,3.3-13.4,0.5-19.6
	c-3.8-10.4,2.7-8.5-0.7-10.2c-25.4-15-3.3-9.5-11.8-18c-3.1,4-4.5-1.3-6.7,0.8c-1.6,0.6,0.9-2.8,2.4-1.2c5-15.2,4.2,5.5,15.6-2.4
	c1.5-5.5-7.5-4.6-4.3-6.5c4.1-2.5-3.8-4.4,0.5-6.1c28.4-21.1-12.7-15.1-11.8-30.6c5-1.6-0.2-1.2,2.6-4.5c0.7-1.6,14.9-6,3.1-3.7
	c-1.2-5-6.1,4.1-6,2.4c-3,1.9-2.2-4.6-7-4.5c5,0,12.9-22.8,18-17.5C399.2,1061.8,447.4,1077.2,425.3,1095.4z"/>
<path id="East_Dunbartonshire" data-name="East Dunbartonshire" d="M436.1,1003.2c0.3,3.9,6.6,6.3,3.8,11.4c5.1-1.1,7.2-6.7,8.9,0.4
	c-5.9-0.4,0.8,6.7-2.6,5.3c-18.4,1.9-13.3,11.4-27.6-0.8c-1.8,13.7-13.4-1.4-12.7-9c2.6-6.3,13.9,11.5,15.1-1.6
	c-3.5-13-4.7-8,6.7-8.2C433.1,1006.8,434.7,993.2,436.1,1003.2z"/>
<path id="East_Lothian" data-name="East Lothian" d="M624.3,997.5c16,12.8,17.9,4.7,29.5,18.4c-2.5,1.6-12.8,18.2-15.6,9.8
	c-0.9-3.6-2.7-1-5.8-2.9c-4.7,0.2-0.4,3.7-3.4,3.3c-1.7,1.9,4.3,4.6,4.1,6.1c-1.6,2.5-0.4,7.7-5.5,4.5c-0.8,4.9-3.9,3.2-6.5,2
	c-0.8,0.1-2.7,2-1.9,0c-2.8-5.1-9.6,3.9-15.4,0c0.4-4.2-3.3,3-5.5,1.2c-3.6,7.4-7-6.1-11-5.7c-3.7,0.1-5.5-6.4-5.5-8.6
	c-3.9-4.9-17.2,2.2-15.6-9.4C593.7,1010.3,603.2,974.9,624.3,997.5z"/>
<path id="East_Renfrewshire" data-name="East Renfrewshire" d="M403.3,1061.2c-1.5-2.2-8.6-0.2-5.3-2.4c1.9-4.1,0.2,0.5-5-4.9
	c-5.7,7.9-1.9,1.3-5.3-0.4c-0.1-4.6,1.9-0.3,5.8-4.5c1-5.8,1.9,0.6,4.6-3.7c3.9,2.9,10.8-5.6,11.3-2.4c-2.7,4.7,6.4,7.5,5.5,1.6
	c12.5-2.2,4.2,2.5,9.4,4.9c0.9,4-6.4,1.4-2.6,6.5c9.4,4.5,8.5,22.8-7.4,12.2c0.5-1.2-4.6-1.2-5.5-4.5
	C407.2,1060.7,405.6,1066.4,403.3,1061.2z"/>
<path id="Falkirk" data-name="Falkirk" d="M461.3,1008.9c-0.8-2.6-4.6,0.4-5.5-1.2c4.7-4-12.8-6.9,1.4-11c1.8-4.7,14.6-0.3,18-2.4
	c10.7-6.3-6.6-2.4,3.1-11.8c3.8,15.8,52.1,22.3,29.3,24.9c-9.4-4.9-9.6,9.2-18,11.4c-6.7-1-5.6,8.4-13.4,7.8
	c4.1-3.6-18-7.8-5.5-12.6C472.2,1011,458.1,1015.4,461.3,1008.9z"/>
<path id="Fife" data-name="Fife" d="M615,958.4c-6.6,3.4-13,6.6-18.5,8.6c-25.5-19.8-34.4,28.8-50.6,26.1c-3.6-1.5-8.1,5.4-11.5,5.7
	c-8.6,0.4-2.9,4.7-6.5,4.5c-2-2.6-4.7,0.5-8.2-1.2c0.1-6.9-9.5-2.4-12.5-6.5c-9.3,3.6-33.5-7.6-11-13.1c11.3,0-12-2.5,9.1-6.1
	c-0.3-9.2,19.7,2.7,24.5-1.2c3.6-1.9,0.7-8.7,9.1-4.9c3.9-3.5-4.8-2,5.5-6.1c0.2-10.3-23.5-9.2-8.9-19.2c2.3,3.2,7.1-0.8,4.3-3.7
	c0.1-3.5,9.2-7.2,2.6-9c19.2-6.7,58.2-28.8,66.3-19.2c-10.3,0.1-1.8,2.2-6.7,4.9c-1.3,3.2-1.9-1.3,0.5-1.2c-1.6-8.7-2.6,0.8-2.4,5.3
	C594.1,946.7,648,934.7,615,958.4z"/>
<path id="Glasgow" data-name="Glasgow" d="M438.8,1028.5c4.4-1.6,7.7,2.8,6.2,5.3c-3.7,1.2,2.7,3.5-1.2,3.3c-7.9,7.3,1.1,0-9.8,4.1
	c-1.3,2.2-0.8-4.4-2.6-2c-1.3,1.7,0.2-4.4-3.4,0.4c-2.2-4.8-2.7,5.2,0.7,4.1c1.7,5.2-2.8,2.6-1.4,6.1c-2,0.9-1.7-1.5-3.1-0.4
	c-5.4-12.5-5.2,0.1-15.6-2.9c2.6,0.1-1.2-3.7,1.2-3.3c-3.1-2.7,1.2-4.7-1-7.8c2.2-2,4.9-4-1.9-7.8c3.8-1.6-2.9-9.4,4.8-5.7
	c1.9,4.6,1.2,3.1,6.5,2.4c0.7-12.3,3.8,0.1,7.4,0c-0.8,4.5,13.3-1.7,8.4,4.1C434.7,1028.9,438.8,1029.4,438.8,1028.5z"/>
<path id="Highland" data-name="Highland" d="M530.2,452.1c-12.9,7.2,7.1,8.5,1.9,14.7c-6.7,1.4-11.2-5.7-18.7,0c-7.1,0.3-1.6-3.3-2.7-4.5
	c-11.6,0.7-19.4,0.2-29.3,11.4c-9.7-0.4-15.6,0.6-24.7-0.9c-4.6,4.5-3-10.6-5.3-4c-3.1-1.7-5.4,11.6-7.2,6.1c-0.6-0.2-1.2,1.8-1.2,0
	c-1-1.6-2.4,1.8-2.6-2.1c-2.7,3-3.2-1.3-5.1,3.7c-2,5.6-8.1-4.4-6.9,4.5c-19.5-4.3-12.9-1.3-25,6.1c-2.5-2.4-2.7,3.2-3.6,4.9
	c1.9,7.1-3.6-8.4,3.8-5.7c6.9-7.2-25.3-28.2-22.8-4.1c-9,1-4.6,6.3-9.4,9.8c-15.7,13.1-3.5-2.9,1-9c7.4-5.2-1.6-5.9-4.3-8.6
	c1.5-1.1-2.6-2.3-2.9-0.8c-2.2-0.5,0.3-3.7-1.9-3.7c-3.3-0.5-0.6-6.2-5.5-2.9c6.4,3.8-0.7,4.3-2.6,7.8c2.7-1.5-6.1-15.7-17.3-10.2
	c-11.3-10-3.7,11.8-14.2,15.5c-4.3-2.1-7.8,10-4.8,11c-0.1,1.1-4.4,0.9-2.9,2c6.3-3.9,4.8,2.4,9.8,1.6c0.2,1.8-2,0.3-2.7,1.6
	c5.5,1.3,2.3-0.6,3.8,0c-0.5,0.9,4.5,0.4,3.4,1.2c-0.1,2,2.6,1.3,3.3,2.4c-2.8,0.8,1.2,1.5-0.2,3.2c-4.6-10.9-20.5-2.6-11.8,0.9
	c5.7,0.8-9.2,0.1,1.2,2.9c-1.7,0.2,1.4,1.6,1.9-2.1c0,0.6,4-0.2,0.7,1.2c0-2.7-2.2,4.1-0.5,0.8c0.3,3.6,5.2,1.2,2.2,4
	c2,0.8-0.8,1-0.5,0.4c-1.6,1.8-0.2-1.9-1.5,0c-1.4,0.8,0-0.4-0.9-1.6c-0.1,1.9-2.1-0.3-0.5,0c-6.7,0.6-9.3-12-11.5,8.2
	c-5.7-1.8,2.1,2.2-0.5,6.1c3.1,2.9,3.1-3.4,4.3,0.4c-3.8,2.1,2.1,2.8,0,2.4c-3.8,3.2,0.8,0.7-0.5,3.2c0,0.9,0.8-0.3,1.7,0
	c-0.7,0.4,2.4,3.2-0.5,1.6c-0.8-1.6-1.5,1.2-0.7,1.6c3.7-3.2,7,7.2,12.9,2.8c1.7,0.7-2.1,1.4,0.2,1.6c0-3,14.6-0.2,11,0.4
	c-13.5-0.5-1,2.5-0.2,7.8c-3-2.9-8.2-3.4-8.4-8.2c-8.8,4.7-12.1-4.9-14.7-2c-2.1,1.3,3.2,2.1,0,3.2c0.6-2.7-1.9-2-3.6-0.8
	c-1-3.5-2,2.2-1.9,2.9c1.3,0.3,0.9,1.4,0,0.4c-1.6-4.6-5.1-1.6-7.2-4.1c-0.4,1.4-1-0.5-0.9,1.6c-1.6-7-8.6-0.3-1-0.4
	c-4.8,3.1-8.3,8.3-10.8-0.4c-19.8-4.4,6.4,16.6,2.2,17.5c1.3,2.7,2.5-0.4,4.6,0.8c-9.9,3,6.7,3.2,4.3,3.3c0,3-10.6,1.1-3.3,5.3
	c1.9,0-6.5,0.9-2.2,2c8.2,24.1-20.7-8.7-20.2,8.6c0.6,2.4,6.1,2.9,4.6,5.3c-3.3,0-0.9-1.8-3.4-0.8c-0.5,6.3,3.5-1.9,3.1,3.7
	c13.2-0.6,6.6,10.6,21.1,13.1c19.4,11-6.8,4.5,9.6,14.3c9.4,3.5,16.2,24.1,7,8.9c-6.9-9.6-39.1-21-34.3-11.4
	c13.1,1.8,4.7,6.9,18.3,9.8c3.1,12.1-15.9-8.5-20.9-8.2c-4.6-2.5-1.3,20.8-16.1,4.5c-3.6-19.9-22,1.5-6.7,8.5c6.8,1.4-2.6,8,2.9,9.8
	c-1.6,3.3-2-0.5-3.8-0.4c-3.7,3,2.6,3,1,6.5c-9.8-2.9-8.1-19.7-12-22c-18.2-1.8-12.3,12-13.2,25.7c12.2,5.8,14.6,0.3,15.8,11.4
	c-7.8-5.8-14.4-1.3-17.1,9c-0.5,4.5,2.2,0.2,3.1,2.8c6.9-0.7,5.7,9.5,10.1,11.4c1.3,0.4,4.5,0.6,3.3,2.4c-0.9,1.4-2.7-3-2.4,1.2
	c4.6,5.5,23.8-3.4,21.1,6.2c-15.4-2.6-7.4,4.6-15.3-2.1c0.2,3.7,2.4,10.6-5.8-0.4c2.8,0.3-2.9-5.3-1.2-0.8c1.3,2.7,1,0.2-4.1,0.4
	c-9.8-24.2-23.2,17-9.9,21.6c1.4,3.5-0.3,6.6,2.2,8.5c-0.7,0-0.1,1.6-0.5,0.4c-3.1-2.7,1.4,4.8-2.4,1.2c4.3,17.7,15.2,4.7,26.2-2.1
	c7.2,4.3-10.2,5,1.2,8.2c3.5,5.5,13.6-5.5,16.1-9.4c9.5,7.8-24.6,16.8-25.4,13.5c-0.3,3.9,1.7,2.8-1.7,3.7
	c-14.4,14.9,16.4,8,21.3,10.2c-0.9,2.1,4.6-8.8,7.2-7.3c-15.3,7.9,5.1,15.3,6,17.5c-4.2,6.4-11.6-8.3-14.2-9.4
	c-30,11.5-1.3,2.6-19.4,22c2.1,10.1,11.6-1.8,18.9,12.2c3.8,2.6,10.2-0.9,13.7-2c4,3.8-14.2,1.7-12,6.1c-8.5-3.1-10.5-11.5-24.5-6.5
	c-0.3,6-16.1,12.2-5.3,14.7c2.8,8.4,5.2-1.8,10.1,2.4c-1.5,12.1,11.2,10.1,18.2,7.8c-25.2,15.9-25.4-25.7-44.4,15.1
	c-1.6,3.2,7.2,1.9,5.3,4.9c1.5-0.2-0.6,1.2-0.3,0c-0.4,0-0.4,1.4-0.5,0.4c-5.5-2.7-2.4,0.2-7.7,1.2c-0.3,10.4,21.7-5.3,22.1,1.2
	c6.3-0.5-6.5,2.7-5,4.9c-3,1.4,11.4,2.7,2.4,3.2c-2.1,5.2-12.6-1-12.5,7.8c1.6,1-0.9,0.8-1,0c-1.7-0.4,0.4,0.9-0.5,0.8
	c-5.3,7.8,19.7,1,3.3,5.3c-11.3-1.2,0.5,3.8-6.9,5.7c-13.5-14.9-68.7,13.8-16.1,14.3c1.9,1.9,6.7-1.3,6.7,1.7
	c1.2,2.3,5.8-5.2,4.6-0.4c2.2,0.9-0.1-3.2,2.2-1.2c2.1,5.7,15.9,1.5,18.7-6.1c16,2.7,6.2,8.2,24.7,5.3c8.8,1.4-17.9,4.3-18.7-2.1
	c-4,0-26.8,11.8-13.9,13.1c-38-23.5-10.6,36.3,11.3,15.9c-1.8,51.6,111.8-109,61.4-29.8c19.7,0.4-6.5,5.6-9.3,10.6
	c4.7,2.3,1.9,1.8,0.5,5.3c-2.6,6.8,14.6,9.6,12.7,1.2c-3.3-3.7,8.6-2.3,7.2,0c14.1,1.6,4.5,4.8,5.8,16.7c1.5,3.3,4.2-8.8,4.6-3.7
	c-7.3,9.8,2,4.7,7.7,2.9c11-10.2,40.1-5.1,46.6-18.8c1.7-9.7-14.6,6.4-11.5-9c16.2,2.7,14.7-10.4,17.7-18.8
	c5.8-2.4,4.8-13.9,12.3-2.4c6.5,4.3,7.7-10.9,13.2-10.6c6.3,4.8-0.4-4.5,15.3-5.7c7.8-2.1,1.1-13.1,10.6-9.4
	c5.4,4.3,17.1-0.8,18.5,2.9c14.3-25-1.6-0.5,23-9.8c12-9.6,2.3-30,11.5-29.4c10.1-12.4,41.4-19.4,31.7-35.1
	c-3.2-20-9.4-5.7,7.7-26.6c-9.2-35.3-41.9,8-37.7-28.5c-3.2-4.8-2.3-35.3-17.5-18c-10.5,8.1-18.9-4.8-26.9,2.4
	c-2.9,2.7-0.7,0.4,1.9,3.7c1.6,4.9-8.2,7.1-9.4,9.8c-17.2,14.1-24.4,4.5-31.4,5.7c-1.7-3.6,18.5,2.8,20.7-4.5
	c4-4.9,6.7-15.1,14.4-11.8c-5.4-7.3,8.3-14.3,11.5-19.6c1.2-6.8-10.7,2.3-14.9,1.6c-6.9-14.5-39.9,23.4-31.2,8.1
	c25.4-28.2,49.3-5.6,56.7-25.3c1.6-5.5,25.2-24.6,13-24.5c-6.5,18.7-15.7-6.9-27.1,6.5c-1.9-1.2-4.3,1.1-6.7-1.2
	c-4.9-3.3-8.1,2.7-10.6-2.4c-3.9-6.3-15.4,2.9-19.7-6.5c27.1,6.2,40.7,17.2,43-18.3c26.2-15.5,49.8-34,70.8-59.2
	c73.9-39.3,15.7-32.3,45.8-79.5c-4.9-5.2-17.4,5-20.4-4.9c-1,3.9-11.2,0.7-13,3.7C530.7,457.8,536.3,453.5,530.2,452.1z
	 M255.2,622.6c-2.8,2.4,5.6,8.9,4.6,3.2C258,625.1,256.4,624,255.2,622.6z M232.6,645.4c-0.3,3.1,4.1,2.2,4.1,0
	C234.7,645.6,234,646.6,232.6,645.4L232.6,645.4z M167.8,651.5c5.3,15.3-15,2.2-4.3,25.3c8.4-0.5-8.8,5.5,7.4,18.4
	c4.9,24.6-5.4-22.6-13.2,3.7c-2.7-2.3,5.9-14.1-2.6-4.5c-4.8-9-12.9-7.6-15.6-18.8c-10-10-2.9,5-7.9,7.3c-2,4.3,4.5-1.3,8.2,7.8
	c8.1,8.4-2.6-0.2-6.5,3.7c0.3,1.4,4,8,2.4,7.7c-2.5-0.5,4.5,6.1,1.9,1.2c2.1,2.6,4.1,8.2,0,2.1c-5.8,9.2-10.4-19.1-16.3-11.8
	c-6.1,3.8,5.4,12.3-0.5,11c-5.1-5.4-5,2.2-5.8,5.7c0.6,2.3,0.8-2.8,5.1,0.8c-2.1,8.9,23.1,22.4,22.1,15.1c1.8-8.7-3.7-6.2,3.4-10.2
	c-0.8,3.5,1.5-3,2.6,0.8c-0.9,0.6-2.3,7.3-0.9,6.5c0.4-0.2,4-10.9,5-7c-1.1,0.8,0.5,6.4,1.9,7c4.1-1.2-2.3,7.7,0.5,5.7
	c1.4-3.7,4.6-2,6.9-4.5c1.1-1.6-1.6,3,1.2,2c-2.1,1.9,2,0.8,2.2,2.9c4,1.8,7.9,11.5,1.9,4.1c-5-10.2-19.2-0.2-12.2,6.1
	c2.4,15,21.3,6,9.3,12.6c1,13.7,21.3-2.1,7.7,11.9c1.4,2.8,7-2.2,9.4-1.2c7-3.7,10.4,2.7,10.1-5.3c2.9-0.1,0.9,1.8,4.8,2
	c0-1.2,1.5-1,1.9,0c1,2.1-1.3,11.4,0.7,10.2c3.8,6.8,10.9-14.5,8.4-18c10.3,12.3-2.5,10.7,14.2,11c19.5-5-14.5,2.8-10.8,18.8
	c-12.6,15.7,12.2,13,16.8-2.4c2.9-5.6,4.3-2.5,7.9-6.1c1.2-4.1-1.6-2.6,1.9-3.7c1.2-6.9-1.4,3.5-1.7-7c8.7,2.9,20.6-11.1,17.5-18.4
	c-0.5-3.2-13.3,2.5-6.7-2c-2.8-3-19.1,3.7-20.4,5.7c-4-0.3-15.2-12.2-21.6-7c-4.3,2.9,10.4-15-11-5.7c1.3-5.3,6.8,0.8,5.7-8.6
	c-8.9,2.1,3.2-16.4-10.1-12.6c7.6-2.3,8.2-50.3-4.1-47.3c-4.9-2.3-0.5-8.8-10.3-12.2c2.1,0,1.2-4-0.2-2.4
	C171.5,650.9,171.9,654.9,167.8,651.5L167.8,651.5z M213.4,741.7c12.4-1,6.9-9.1,0.5-11C206.7,730.8,206.5,734.2,213.4,741.7
	L213.4,741.7z M215.3,676.8c-2.4,1.2,0.8,1.1-0.2,2.4c-0.5,1.3-1.4-2.8-2.4,0.4c-1.4-0.3,2.3,5.3-0.5,6.1c-0.4-1.2-2.1-0.4-1,0
	c-0.7,2.2,0.9,0.9,1.7,0.4c0.4,2.3-4.1,0.5-1.4,2c-0.6,1.4,2.9,2,0.5,2.1C214.4,695.6,218,678.7,215.3,676.8L215.3,676.8z
	 M213.9,677.3c0,0.2-0.1,0.5,0.3,0.4C214.1,677.5,214.2,677.2,213.9,677.3L213.9,677.3z M209.6,691.5c3.9,2.9,1.6,4.5-1,6.9
	c1.2-4.4-2.5-3.3-1.7,0.4c3.5,0.7-0.9,1.9,2.9,2.9c-13.7-1.1-11.3,38.7,0.5,24.5c4-4.4-2.9-10.6-2.7-16.7
	C208,705.1,219.3,694,209.6,691.5L209.6,691.5z M228.5,724.2c-1,5.5,8.9,6.5,1.9,0.8C229.7,727.2,229.8,723.9,228.5,724.2
	L228.5,724.2z M223.7,732.7c-0.3,1.7,0.6,2.9,1.7,1.2C224.8,733.7,224.8,732.6,223.7,732.7L223.7,732.7z M227.6,738.9
	c-0.6,0.4,0.1,2.1-0.7,0.8C224.8,745.3,233.6,741.4,227.6,738.9L227.6,738.9z M184.8,763.7c-1.5,3.7-8,1.3-2.9,7.3
	c2.4,0,6,0.1,3.6-3.7C189.4,767.7,191.9,763.4,184.8,763.7L184.8,763.7z M143.1,783.3c1.1,3.5-7.5,0.2-6,4.9
	c2.2,3.9,12.9-6.9,11.3,0.4c4.6-0.6,9.5,1.3,2.4-2.1C155.6,780.7,145.2,785.1,143.1,783.3L143.1,783.3z M170.2,785.4
	c-21.3,12.6-15,10.4,0.3,24.5c3.8,7.2,18.2-15.6,7.2-14.3C186.2,791.6,173.1,787.5,170.2,785.4L170.2,785.4z M176.9,789.9l0.3-0.4
	C176.8,789.4,176.9,789.7,176.9,789.9L176.9,789.9z M150.5,786.2c0,0.2,0.1,0.5-0.3,0.4L150.5,786.2z M193.9,809.1
	c-5.2,3.9-2,0.6-2.4,6.1c-14.4-0.3,0.9,16.5,4.5,6.1C198.2,820.4,198.3,810.3,193.9,809.1L193.9,809.1z M178.3,829
	c-0.2,1.4,1.9,2.3-0.3,1.6c-1.6,7,2.3-0.5,4.3,4C188.9,827.4,180,832.1,178.3,829L178.3,829z M325.7,858.8c2.3,0-13.4,9.4-14.4,3.3
	C314.6,863.2,320.7,860.6,325.7,858.8L325.7,858.8z"/>
<path id="Inverclyde" data-name="Inverclyde" d="M379.7,1019.6c-1.9,10.4,6.3,23.3-15.6,16.7c-15.7-15-0.7-6-18.2-5.7c0.1-2.1-1.2-5.4,2.6-6.9
	c-6.7-12.1,20.8-15.8,20.9-6.1C371.1,1019.8,381,1014.8,379.7,1019.6z"/>
<path id="Midlothian" data-name="Midlothian" d="M580.6,1043.6c-24.9,17-14.6,34.3-26.9,5.3c1-6.3-5.6,2.8-10.8,2.4c-4.9-2.6,0.9-5.5-7.2-3.7
	c-10.6-6,8.9-17.7,14.4-19.2c0.2-2.3,20.5,0.3,11.8-5.7c2.9-11,6,6.9,17.8,0c3.6,4.4,2.4,12.1,9.6,11.4c-3.6,1.3,4.1,3.2,3.6,4.1
	c0.5,1.6,4.6,5.8,0,2.4c-4.5,8.3-1.5,1.5-5.8,4.9C582,1052.5,585,1039.6,580.6,1043.6z"/>
<path id="Moray" data-name="Moray" d="M493,778.4c22.4-17.5,35.4-15,27.1-39.2c-12.5-7.9,17.6-14.9,5.8-29c-34.7-17.3-32.1,19.9-37-30.6
	c-3.2-3.1-9-16.2-0.7-16.3c3.2-0.5-0.1,2.4,0,1.2c-0.1,1.3,3-1.4,0.5-1.6c-10.3,3.3,8.8-4.1,9.8-2.4c7,0.2,20.5,1.3,17-8.2
	c24.2-13.6,52.5,19.2,73.2,0.4c10-2.8,3.2,1.9,10.3,1.2c3.5-1.4-1.2,7.3,4.6,9c0.2,6.9-6.7,6.6-1,11.4c-0.4,4.3,5.4,2.4,4.1,6.1
	c8.6,1.6-0.7,9,10.6,6.5c-2.4,0.5,2.9,0,1.4,1.6c-4.4,2.5-12.7,8.9-12.7,1.6c-9.1,6-5.1-5.5-11.3-2.9c-8.8,1.8-5.3,8.5-15.1,9
	c-15.1,17.4,9.3,5.6-1.2,13.1c-1,0.6-8.9,4.9-2.4,5.3c7.9,2.3,4.6,36.4-4.6,26.1c-19.3-6.7-20.3,15.1-37.2,19.6
	c-6.5,4.5,10.1,11.5-1.9,15.1c-10.1,4.4-24.3,4.1-34.6,4.1C495.1,786.7,495.7,783.3,493,778.4z"/>
<path id="Outer_Hebrides" data-name="Outer Hebrides" d="M179.8,483.9c-33.1,38.2-88.3,37.7-56.9,71.8c-1.2-4.1-16.4-7-10.8-7.3
	c0.6-1.3,4.6,3.7,3.6-0.4c0.2-0.8-1.1-6.4-1.2-2.4c-1.5-1.3-2.6-4.8-3.8-3.2c0.5,0.9,1.7,1.5-0.5,0.8c-2.2-1-0.4-6-5.3-5.3
	c-1-1.1,5.2-0.6-1.4-2.4c-2-1.8,2.2,4-0.7,2.1c-1.1,4.6,5.1,6.9,1.9,9c0,2.9,4.9,1.5,4.6,2.9c0.1,1-5.1,1.4-2.9,4
	c-0.4,1-3-3.6-2.2,0.4c0.8,1.7,2,2.2-0.5,1.6c-1,2.5-0.6-3.5-1.9-3.3c-2.2,2.8-4-3.8-4.3-0.8c4.3,3.3-6.5-4.1-2.4-2
	c2.5,2.3,0-0.2,1.4-0.4c9.5,0.7-1.1-2.9-1.9-6.5c-2.8,6.4-2.5,0-7.7,0.4c-1.8,1.6,0.6-2.7-1.2-2.1c-9.5,10,3.1,12.6-3.6,12.3
	c-11.8-1.4-0.8,1.8-6,7.3c-2.6-1.8,2.1,2.8-2.7,2c-2.4,5.4,3.6,4.1,1.7,8.2c2.8-0.8,0.7,7.3,2.7,6.1c0.5,0.6,3.5,0.6,0.7,0.8
	c1.4,3.7,7.3-4.4,7.2-1.6c1.1,1.4-9,5.2,0.5,3.7c-7.1,3.3-3.8,6.2,3.8,2.4c17.1-2.6-7.9,1.3-7.4,6.9c-7.7-4.9-1.5,1.5-6.2,2.9
	c-0.4,0.6-1.5,1.9-0.3,2.4c5.3-5.7,1.1,5.6,5.3,4.1c1.6-2.2-0.1,1.5,3.8,2c1.8,1.2,6.6,1,3.8-1.6c3.5,1.3,9,6.8,11.7,3.2
	c1.2-0.1-0.7,1.3-1,1.2c-1.7,2.6,13.7,2.3,6.5,3.3c11.7,13.1-9-2.9-12.5,7.3c2.3,9.1-4.4,2.3-3.8,5.7c-1.5,4.3-8,11.4-11.5,5.7
	c-13.1-4.5,5.8,14.6,7.9,13.1c-2.4-0.5,9.2,13.2,6.3,6.9c3.7,0.9,7.9-5.9,8.4-6.9c-2.2-0.2-1.3,0.1-0.5-0.8c1.2-0.1-2-0.8,0.5-0.8
	c4.6,5.1,1.9-1.9,3.3-3.2c0.9,0.1,2.3,3.1,2.2,0.8c-1.9-8.1,4.8,2.8,1.2-7.3c0.4-1.8,5.4,8.6,3.4,3.2c2.1,1,1.5-2.2,2.9,1.2
	c3.3,2.1-1.3-9,1.4-4.5c2.2,0.8,2.2-1.3,2.2,1.2c1.6,0.6,0.9-2.2,1.9-1.2c1,3.7,2.6-2.6,0.7-3.7c-1.1,2.3-1.5-1.5-2.6-1.6
	c0.5-5.6-3.4-1.8-4.8-3.7c-1.1-4.1,0.5-2.1,2.4-1.6c-1.6-4.3-0.3-4.5,3.6-2.9c4.6,4.1,18.3,3.1,6.7-4.1c-2.5-0.9,0.7,0.1,0.7-1.2
	c5.8,2.5-0.9-9.6-3.6-6.5c1.6-4.1-1.5-8-3.1-9.8c0.6-4.5,15.6-9.9,7.7-12.6c1.3,1.3,8.4-1.5,2.6,1.6c-15.9,11.5,9.8,39.4,4.8,21.6
	c-4.7-6.5-0.3-0.1,1.9-0.8c0.2,3.9,3.9,9.2,5.3,7.3c-1.8-3.9,0.8,0.4,0.7-0.4c6,2.8-0.7-13.7,2.9-4.9c2.1,3.2,10.7,1,8.6-4.5
	c11.7-11-19.8-6.9-9.8-9.3c4.5-0.4,12,0,13.7-1.6c5.6,2.4,3.6,4.6,7.9-0.4c4.5-6.6-1.4-3.6-5.1-6.1c3.7,0.6,6.8-1,4.8-4.1
	c-2.8,0.2,2.5-2.4-0.3-2.4c-1.1,0.2-0.6-1.4-0.2-2.4c-0.3-1.6-2.4,2.2-2.4,0.8c-1.1-2.5,2.7-0.1,1.2-2.1c-2.9-0.7-0.2,0.2-1.4-2
	c0.7-2-2.9-0.7-1.9,0.4c-3-0.2-1.4-2-4.6,0c10.5,2.4-13.6,3.7-16.3,2.8c4.7-0.4,21.1-2.9,18.3-8.1c-4.8,0.4,16.8-0.8,4.9-2.8
	c10.1-2.4-8.3-21.6,6.5-9c7.8-9.3,14.3,13.8,25-13.9c-1.6-6.6-12.8,8.6-17,8.6c-17.7-0.8,8.2-24,13.9-27.7
	C175.8,514.5,201.7,503.3,179.8,483.9z M70.8,582.6c-7.9,9.2,16.8,10,1.9,0.8C69.9,584.6,74.1,582,70.8,582.6z M88.1,607.1
	c-5.1,2.3-3.6,4.5-8.2,6.5c-2.5-3.1-0.3,6.5,3.3,1.2c-0.4-3,0.9-1.8,2.2-0.8C89.8,619.1,93.3,607.9,88.1,607.1z M125.1,616.1
	c2.6,2.7-2.9-1.6,0.5,2.4c-0.5,0.7-1-0.4-0.5,1.2c2.5,0.6-0.8-2.6,2.9-0.4C124.5,625.7,141.8,618.4,125.1,616.1z M60,635.7
	c0,0.5-5,1.2-2.4,4C60,644.2,70.4,636.4,60,635.7z M79,637.7c0.1,1.5-3.4,1.3-0.7,2.4C81.1,645.7,81.6,638.8,79,637.7z M78.5,642.6
	c-3.5,3.5,5.6,4.5,2.4,2.4c-1.2-0.2,0.7-0.5-0.2-0.8C79,644.6,79.5,642.9,78.5,642.6z M67,645c-10.7,10.6,0.2,7.8,3.4,4.5
	C72.5,648.3,71.9,643.9,67,645z M54,648.7c-4.8,2,3.6,7,1.2,2.9C55.7,649.6,56.5,650.2,54,648.7z M65.1,653.2
	c-0.4,5.3-8.3-0.2-6.7,3.7c2.8-2.2,1.1,3.2-1,2.9c-2.6-2-6.3,1-5.3,2c-1.8,0.9-0.8-2.5,1.4-2c-3.3-0.9-1.5-6.1-2.2-5.7
	c-0.9-1.2-2.1,3.7-3.6,2.9c0.1,8.1-5.9-0.2-8.9,3.7c-4.1,3.4-8.9-4.8-10.8,7c0.7,0.8-5.8,1.8-1.7,2c-0.9,6.2-2-0.6-3.6,3.2
	c-1.9,1.8,2.7,0.7,1.4,2.5c9,2.5,2.5,8.8,12,4.5c-6,2.3,7.7,6.3,7.4,13.1c-1.8,11.8,9.4-11.8,4.6-0.4c-0.7,1.7,1,0,1.4,0.4
	c4.3,0.3-3.6,0.2-1.2,2c-1.8-0.9-4.2,3.7-8.4,5.3c-3.3,2.2,2.6,2.7-1,3.2c-0.3,2.9,1.8,1.4,2.2,5.3c-2.2,3.9,5,0.7,2.4,3.3
	c-13,11.8,2.9,12.5-5.8,27.7c-10.1,59.9,48,36.1,15,27.8c-2.5-4,3.9,2.6,5.7-2.4c5.3-12.1-17.4-15.2-8.2-15.1c3.5-2.3,4.5,2.3,2.9,0
	c-2.5,0.2,0.6,3.6,3.8,1.2c2.5-2.1,0.2-11.2,7.7-11.4c-0.5-2.3,2.1-5.6,0-4.9c-4,2.6-2.1-7.2-4.6-2.9c-0.8-0.2-4.9-2.9-2.4-2.4
	c2.3,0.9,6.6-4.9,3.6-4.1c0.3,3.2-2-0.5-6.2-4.1c-1-1.1,3.7,0.2,0.7-2c-7.1-3.2,0-0.8-2.2-3.2c-0.5-0.9,0,0.3-0.7,0
	c0.2-1.4,1.1,0.6,1.7,0.4c-0.4-1.9-0.7-0.7,0.7-0.4c-0.9-3.4,0.7,1.6,1.2,0.4c-0.4-0.5-1.3-1.4,0-1.2c1.6,1.3-0.7,1.5,1,2.4
	c-0.1-1.8,0.6,0.9,0.9-0.8c5.9-0.7-4.8-2.1-1.2-3.3c7.1,3.8,0.4-0.5,7-0.8c3.1-0.9-2.6,0-1.7-0.8c4,0.3-0.1-1.7,1.7-1.6
	c1.5-2.6-6.5-4.7-5.3-1.6c-0.4-0.5-4.5-1.7-1.9-1.6c0.2-0.4-1.4-1.1-0.5-1.2c1.7,2.1-0.9-1.4,1-0.8c-0.1,3.2,2,2.3,1.2-0.8
	c0.9,2.2,4.2,1.6,5,1.2c-0.7-1.6-2.4,1.2-1.7-0.8c1.3-0.6-1.4-1.4-0.5-1.6c1,0.2,3.1,1.7,2.9,0.4c-1.6-0.1,1.6-0.9-0.5-0.8
	c-0.2-0.5-3.3-3.3-3.1-1.2c-0.3,0.6-2.1-5-2.9,0c1.3-3.6-8-5.1-1.4-4.1c1,0.3,9.7,5.5,8.4,0c1.1,4.2,4.6,5.1,4.1-1.2
	c1.4-2.4-9.7-3.9-1.4,0c0.2,1.1-3.6-2.1-3.1-0.8c0.8,8.2-3.7-3.8,0-2.1c4,1.9,14.4-8.5,5.1-9.8c0.6-1.7,5-0.2,6.2-4.1
	c-1-1.8,2.8-4.7,0.3-4c-11.5,2.9-1.1-5.7-9.1-4.9c-0.3-1,2.5-0.8,1-1.2c-1,0.2-5.5,0.7-1.7-0.4c0-0.6-1.1-0.9,0.3-0.8
	c-0.8-1.5-7-3.4-1-2c-0.9-2.8,2.3,0.2,2.4-1.2c0.1,3.3,0.9-1.8,1.7,1.2c-1.6-0.2-0.4,0.5-1,0.8c-8.1-5,3.6,6.1,1.4,1.6
	c0.8,1.9-0.8-0.1,0,0c-0.2-0.5-1.8-1.1-0.5-1.2c2.2,0.7,0.7,2.9,2.9,4.5c2.3-5-1.9,0.1-0.5-3.7c-0.3,1.3,5.3-2.4,3.1,0
	c-3.3,10.6,14.9-4.8-0.9-6.5c0.2,1,1.9,0.8,2.2,1.6c-0.1,2.1-3.8-0.8-2.4,1.2c-2,2.4-1.4-1.4,0-2c-0.3-0.1-1.4-1.4-0.3-0.9
	c0.6,1.2-0.1-1.3,0.3,0c1.8-1.9-2.9-0.1-2.2,0.4c-1.6,0.1,2.5,2.5-2.7,0.8c-1.6,0.3,4.4-6.2-2.2-6.9
	C63.9,654.9,68.2,654.4,65.1,653.2z M61.9,715.2c-2.3,4.3,2.9,2.8,4.3,1.2C67.1,713.5,65.3,711.5,61.9,715.2z M37.7,679.3
	L37.7,679.3 M67.7,681.3c5.5,4.7-4.5,1.8-8.2,2.4C61,681.4,67.9,683.6,67.7,681.3z M10.1,687c-8.5,7.8,2.4-1.6,3.3,5.7
	c2,0.3,4.9-7.3,1.2-4.5C10.1,691.1,12.1,687.8,10.1,687z M53.1,779.3c-4.1-0.2-0.8,11.9,2.4,5.7c-0.4-0.3-3.1-0.3-2.2-1.2
	C56.3,785.5,58.4,777,53.1,779.3z M41.8,784.9c-0.5,0.8-1.3,0.8-0.7,2.1c0,1.3-0.8-1.4-0.8,0C40.1,792.2,47.1,786.2,41.8,784.9z
	 M33.8,785.8c1.6,8.6-1.8,8.4-8.9,9.8c2.1,0.2,3.6,2.6,1.2,2c4.5,5.9-14.5,8.2,1.2,11.8c5.9-5.4-0.7,1.7,6.7-0.4
	c1.5,0.2-0.3-1.2,1.4-0.8c4,1.3-2.8-4.2,1.9-2c-0.5-2.8,3.6-6.2,5.5-3.7c2.2-4.8-6.4-3.8-3.8-5.3c0.9,1.1,0.1-0.8,1.9,0.4
	c1.2,2,1.4-4,0.5-0.4C34.4,795.3,42.7,786.5,33.8,785.8z M49.4,792.3c-4.2,2.7-5.8,2.6-0.2,4.5c-1.2-1.6,2.2-2,0.5-3.2
	C49.4,792.9,50.5,792.2,49.4,792.3z M19.7,808.6c0.6,1,1.3,2.9-1.4,2.9c1.3,0.2,7.6,2.7,3.3,2.4c-1.4-0.4,0,0.9,0.3,2
	c0.2,2.3,11.1-2.4,3.4-1.6C21.7,810.4,38.5,814,19.7,808.6z M35.5,813.9c-0.8,1.3-1.9-1.1-0.7,2.4C35.9,816.3,37.1,814.6,35.5,813.9
	z M25.2,818c-3,1.7-0.5,3.6,2.6,4.9C29.3,820.5,29.7,818.7,25.2,818z M18.7,826.6c-5.9,5.6,3.2,0.5,3.7,2.8
	C22.9,828.1,19.9,826.8,18.7,826.6z M12.5,833.1c-0.1,3.1-4.8-0.2-2.8,3.6c1.8,0-2,1.2-0.9,1.6c-1.5,2.1,7.3,2,4.3-1.2
	c1.5-1.1-0.1-2.9,1.2-3.7C15.7,833.2,13.1,833,12.5,833.1z M10.8,841.3c-3.7,1.6-0.3,1,0.9,2.9C15.4,842,15.2,842.1,10.8,841.3z"/>
<path id="North_Ayrshire" data-name="North Ayrshire" d="M350.6,1073C351.1,1073.2,350.4,1072.1,350.6,1073c0.6-1.7-6.6-4.9-6.1-6.5
	c-1-6.3,3-7.2,3.4-10.6c8.8,3.7-10.6-26.5,2.6-25.3c3.7,0.3,6.6-7.2,7.2,0c2.3,2.5,9,6.3,1.9,6.5c0.3,4.6,14.5,6.6,14.4,17.5
	c7.1-7.3,0.2,5,10.1-4.5c11.6,4.4-1.3,19.1-7.2,23.3c5.5,1.2,6.4,9.3,8.9,1.6c7.8-1.7,13.1,0.5,1.7,2.9c-1.3-0.3-0.6,2.3-1.4,2.9
	c-11.5,24.7-9.3,5.3-28.6,0c-3.5-1-7.1-9.5-6.7-8.2 M314.2,1091.4c20.2,8.2-6.9,7.7,8.6,14.7c-1.1,9,0.4,17.1-7.9,14.7
	C258.8,1134.5,304.5,1007.3,314.2,1091.4z M341.3,1050.2c4.2-7.3,5.7,5.3,2.2,7.8C342.8,1052.4,335,1064.6,341.3,1050.2
	L341.3,1050.2z M336.8,1062.4c-0.1-0.1,2.9-2.2,3.4-2.9C340.7,1061.9,338.5,1068.2,336.8,1062.4L336.8,1062.4z M322.1,1100.7
	c2.9-0.8,4.6,7.2,1.9,4.9C324.1,1103.6,320.9,1102.7,322.1,1100.7L322.1,1100.7z M318.5,1122.8c0,0.9,0.3,0.9,0,1.6
	C318.5,1124.1,317.3,1122.8,318.5,1122.8L318.5,1122.8z"/>
<path id="North_Lanarkshire" data-name="North Lanarkshire" d="M461.3,1008.9c-2.5,6.3,8.2,2.4,9.8,4.5c-9,3.6,0.7,9.5,6,11c1.9,0-1.5,2.5-2.2,2.4
	c1.4,1.4,3.8,5.5,6,3.3c1.1,1.6,0-2.3,2.6,1.2c0.2-1.9,5.5-3.3,6-2c-11.1,8.1,5.4,15.6-7,22.8c-26.6,1.4-9.4,12.2-26.9,0.8
	c-0.8-2-9-5.7-7-8.2c2.3-2.4-9-4.4-6.7-6.5c-1.9-1.3,3.6-0.7,3.1-1.6c-3.7-2.3,1.7-2.1-0.5-4.9c1.7-5.4-6.9-2-9.6-3.3
	c-3.3,1.4,2.7-1.3-2.2-2.9c-7-7.4,8.1,0.4,7.2-4.1c14-2,1.6-2.4,7.7-6.1c1.7-7.8-3.3-2.1-7.9-0.8c2.6-5.7-2.9-6.4-3.8-11.4
	c3.3,2.4,7.4-6.1,8.4-3.7c2.4-1.1,10.4-2.4,6.2,3.3C463.8,1005.3,450.6,1006.7,461.3,1008.9z"/>
<path id="Orkney_Islands" data-name="Orkney Islands" d="M651.2,302.7c-2.8,2.9-3.2-0.7-6.3,1.6c1.3,5-7.2,6.8,4.8,6.5
	C643.5,302.8,656.7,306.8,651.2,302.7L651.2,302.7z M591,303.9c-2.2,1-6.6,15.8-1.7,11.8c0.7,3.3,2.6-1.2,1.7-1.2
	C589.1,308.6,594.3,308.9,591,303.9z M581.1,309.7c-5.1,6.6-5.8,8.7-13.2,5.3c-1.2,3.1,4,3.8,4.6,5.3c3.2,0.9-0.7,7.5,2.4,7
	c0.6,0.7,3.8,4.6,4.3,3.2c-2.6-2.6,3.4-1.6,3.8-2.9c-3.5-4.5,4.9-1.3,5.3,1.6c1.5-0.2,0.7,4.4,1.9,1.6c3.8,0-2.9,6.9,0.9,5.7
	c1.3-2,1.7-5.5,4.6-3.7c1.3,1.1-1.3-4.8-2.6-4.5c-1.4-0.6-2.6,1.7-2.2-0.4c-0.4-2.3-1.3-4.6-2.7-6.5c-1.8-0.5-0.4,2.7-2.9-0.8
	c-1.5,2.7-1.7-2.6-2.7-0.8c-3.1,1.5,0.1-1.8-3.3-1.6c-3.4,1.1-0.6-1.4,1-1.6c3.2,0.3,1-3.7,1.2-4.1c5.5-0.3,2.3-4.1,2.4-1.6
	C581.4,312.4,583.8,309.4,581.1,309.7L581.1,309.7z M646.4,319c-5.6,2.2-0.1,6.9-7.4,4.5c-2,2.6-6,6.7-8.2,4c-4,3.7-0.4-0.5,0.5-0.8
	c-2.5-2.5,2.8-3.1,3.1-5.7c-5.9-1.7-10.1,6.9-11.5-0.4c-1.5-2,0.7,3.3,0.3,4.9c1.5,0.7,4.4,4.1,0.5,2.9c-0.6,2.1,2.2,0.4,0.7,2
	c-5.5,1.1-8.3,8.1-9.8,7.8c-4.4-0.5,0.3,12.6-0.2,5.7c3.8,1.3,4.4-10.7,9.8-8.6c0,4.5,1.5-1.8,3.1,0.4c1.4,5.6,0.7-1.6,7.5-0.8
	c3.6,7.6-2.4-0.8,5.7-8.2c3.5-3.2,10.1,2.8,12.3-0.4C645.8,325.9,648.9,323.9,646.4,319L646.4,319z M605.6,332.1v0.4
	C605.6,332.3,606.1,332,605.6,332.1L605.6,332.1z M605.6,332.5c-8.3,3.7-0.1,6.6-3.1,12.6c-1.7,1-4.2,0.8-4.6-1.6
	c-1,1.1-1.2,6.3,1,4.9c2.4,1.9,1.9,5,3.6,7.3c1.5-3.3,6.3,1.1,5.5-3.2c-2.7-0.2-2.4-6.4-2.2-8.6
	C612.4,334.7,604.9,339.6,605.6,332.5L605.6,332.5z M607.5,332.9c-1.5,2.1,0.5,4.8,2.9,3.7C611.4,335.7,609,333.1,607.5,332.9
	L607.5,332.9z M596.5,334.1c0.4,2.3,0.1,4.4,1,7.8C600,343,597.7,335.3,596.5,334.1L596.5,334.1z M594.1,340.3
	c-0.3,0.5-1.1,2.5,0,2.4C594.1,341.7,594.5,341.3,594.1,340.3L594.1,340.3z M566.7,342.7c-15,14.3,19.7,23.1,14.2,3.2
	c-1.9-2.1-5,2.8-9.1,1.2C569.9,343.3,570.8,343.9,566.7,342.7L566.7,342.7z M585.9,347.2c-4,3-2.6,9.3,0.3,11
	C587.6,354.5,587.1,348.5,585.9,347.2L585.9,347.2z M621,350.5c-6.7,4-5.7,1,0.7,7.3c2.2,5.4-5.9,1.2-6.2,6.5
	c-4.6,5.6,4.2,4.6,3.4,3.2c-0.2-9.7,6-5.3,5.7,1.6c3.4-0.9,3.9-3,8.2-1.2c-1.4,0.2,0.4-2.6,0.7-2.4c1.6-1.8-0.7-0.1-0.7-1.2
	c-4.4-1.3,1.6-6.3-0.7-5.7c-3,0.5-8.4,3.8-7.7-2.4c8-2.2,2.6-0.9-1.9-2C620.9,354.1,625.7,352.2,621,350.5L621,350.5z M549.2,352.1
	c-21.1-1.8-23.7,50.6-5.3,40c4.3-11.1,4,18.4,11.5,9c20.1,0.7,21-20.7,29,4.9c2.2,2.1,8.9-4.6,12.3,4.9c1.7-10.4,16.9-8.3,13.9-13.4
	c0.9-1.2,3.4-11.3-1.4-6.2c-9.3,3.1-8,1.2-7.9,8.6c4.5-1.9-1.9,2.6-0.7-0.4c-0.4-3-4.7,2.6-2.9-2.4c-1.3,0.7,1-2.1-1.7-3.2
	c-0.6-0.4,1.3-0.6,0.5-1.6c8.8-0.7,4.5-9.1,2.4-4.9c-4.4-1.5-12.5,9.3-12,2c-3.2-2.3,5.1-1.7,2.7-4.1c-6,3.7,2.5-6.8-3.8-2.4
	c-1.9-4.9-2.1,2.5-4.3,4.5c-8.6-11.8-10.4,2-18.9-4.9C582.3,372.3,576.8,361.3,549.2,352.1z M596.7,356.6c-0.4,0.7-0.2,1.5,0.5,1.9
	c0.1,0,0.2,0.1,0.2,0.1C597.6,357.9,598.3,356.2,596.7,356.6L596.7,356.6z M580.9,357.4c-1.2,1.3-7.5,3.3-3.3,3.2
	C578.5,361.4,585.2,360.7,580.9,357.4z M580.4,365.1c-8.1,0.7,2,6,0.5,2.4C584.5,370.5,581.4,366.2,580.4,365.1L580.4,365.1z
	 M581.6,365.1c-0.2,0.7,0.9,2,1,0.8C583.3,365.4,582.3,364.9,581.6,365.1L581.6,365.1z M599.1,365.9c-2.5,2.9-7.3,10.8-10.8,2.4
	c-1.7,5.2-7.3,10.5,1,9.4c2.4-1.2,13.8,5.8,9.3-2.4C595.9,373.3,604.8,366.9,599.1,365.9L599.1,365.9z M589,377.8
	c-0.4-0.1,0,0.3,0,0.4V377.8z M627.9,376.1c-0.2,4.2,0.6,2.1,1.9,2.1C630.6,376.9,629.1,376.4,627.9,376.1L627.9,376.1z
	 M538.2,396.2c-1.3,4.9,8.5,6.6,5,0.8C541.1,399.1,541,396,538.2,396.2z M532.9,397.8c-2.1,3.4-6.6,0.7-7.9,6.5
	c-3.4,11.2-1.1,3.7,5.1,7.8c2.8,7.6,7.3,19.6,15.8,17.5c0.7,1.8,5.9,2,2.2,0c0.4-1.6-4.6-0.9-2.2-2c-0.6-4.1,12.2-3.7,8.9-7.3
	C547.5,410.9,551.6,407.4,532.9,397.8L532.9,397.8z M547.8,428.8c3.9,1,10,2.3,12.7-1.2c-1.7-0.2-3.2,1.7-2.2,0
	C562.6,421.3,549.6,425.5,547.8,428.8z M586.9,411.3c-1,1,0.9,4.6-1.7,2c-5-0.3-5.8,2.7-0.7,3.7c3.4-0.1,13.4-1.5,5.5-2.8
	C590.2,409.7,590.3,408.8,586.9,411.3L586.9,411.3z M587.8,416.9c-6.7,4.2-9-1.3-15.8,4.1c1,2.8,4.9-3.9,6,2.9
	c0.5,0.8-3.1,2.3-1.4,0c-1.8-2.8-3.9,0.2-1.9,2.4c1.7-1.6,1.4,2.4,3.4,2c1.3-0.1,0,0.1,0.5,1.6c1.8,3.9-3.3,4,0,6.1
	c1.2,1.1-0.4,2.7,1.9,1.6c-0.3,2.9,1.4,2.4,3.3,1.6c0-1.1,0.2,0.1,0.5,0c0.6,0.3,3.4-0.6,1.7-1.2c1.4-2,1.8-3.8-1.2-4.9
	c-2.3-1.4,3.5-4.8,0.3-6.1c0.4-1.7,1.1-1.2,2.2-2c1.4-1.9-1.4-1,1.4-2.9c-0.3-0.9,5.3-0.4,1.4-1.6
	C591.4,417.5,588.3,418.9,587.8,416.9L587.8,416.9z M580.2,414.5c3.8-3.6-5.4-0.1-1.4,0.9C579.6,414.5,579.5,414.8,580.2,414.5z
	 M555.4,413.7c-4.7,4.4,5.7,6.9,1.9,2.4C556.7,415.5,557.3,413.8,555.4,413.7z M566.3,415.3c-11.9,3.2-8.3,8.4,0.5,6.9
	c0.8-7.9-2.2,0.1-3.8-4.1C563.6,418.2,572.7,415.2,566.3,415.3L566.3,415.3z"/>
<path id="Perth_and_Kinross" data-name="Perth and Kinross" d="M478.6,811.1c1.7,6.4,5.9-1.9,8.6,1.6c1.3,3.6,5.6,4,6.7,0.4c21.6-4,7,10.7,19,8.2
	c12.8,7,5.8-3.5,18,2.9c-3.6,8.1-5.4,4.6,1.4,9.8c3,3.6-8.3,13.3,0.5,16.3c-1,6.7,8.7,9.8,8.6,16.3c0.1,2.4,2.8-1.8,3.1,0
	c3.6,5.7,15-0.8,13,6.1c-0.3,0.9-4.8,0.4-2.2,2.5c-5.5,3.8,1.3,0.4,2.2,2.9c1.5,1.4-1.8,1.8-1.4,2.9c1.4-0.5,2.5,1.5,2.9,0.4
	c12.6-10.5,1.9,6.1-4.8,6.5c-2.2,2.8,5.8,10.7-2.9,8.2c-1.2,3.9,14.4,15.9,17.3,12.6c6.5,5.7-0.6,6.4-2.4,7.8c3.2-0.1-2,7.3-1.9,3.3
	c-0.7,1.6,0.9,1,2.2,0.8c-2.2,1.6-2.8-0.8-3.4,0c3.8,1.1-0.1,2.3-1.4,0.4c4.8,1.7-30.1,12.4-13.2,9c-0.7-0.1,0.8,0.1-1,0.4
	c4.4-0.4-8.9,2.5-3.4,2.9c0.8-1.3,0.9,0.9,1,1.6c-2.9-0.3-0.9,2-1.7,2.9c-5.4,1-2.6,4-2.9,7.8c-2.4-0.7-16.2,3.4-7.4,6.5
	c-4.3,8.5,8.8-2.7,11.3,12.2c-1,1.6-9,2.4-3.8,4.5c-19.7,4.2,1.2,9.3-28.6,5.7c-9.6-6.8-2.8,3.7-11.5,2.9c-4,1.5-1.2-4.3-2.9-5.3
	c3.9-3.2,5.2-0.7,7-4.5c4.5-11.2-16.8,3.5-19.2-4.5c-2.7-7.4-8.1,4.5-11.8,0.4c-5.2-15.5-47.8-8.9-48.3-37.9
	c13.2,3.4-3-22.1,9.4-12.7c4.7-4.5,12.6-5.4,2.9-12.2c-15.7,0.2-15.9,15.6-23.8-6.1c2.1-0.9-5.1-3.7-4.3-1.6
	c-8.8,7.7-18.3,3.6-25.9,9c-5.5-0.7-3.4,7.6-8.4,4.1c-10.1,0.3,4.6-9.1-1.7-11c-13.6-5.8,16.1-8.7,11.5-9c0.9-6.2-11.5-8.1-5.8-12.6
	c-1.8-7.8-4.4,1.5-8.4-1.2c-15.7-6.7,12.8-6.2,11.5-13.1c-2.3-3.1,7.1-29.3,16.1-15.1c5.1,3.8,7-11,11.5-10.6
	c5.7,4.5,2.6-5.6,16.3-5.7c7.9-5.1,1.1-3.7,5.5-9.4c3.1-2.7,13.1,5,18.2,0.8c1.1-0.8,2.4,4.7,3.1,0.4c8.2,4.6,3.4-8.8,7.9-10.2
	c0.5,0.3,1-1,1,0c-0.8,4.5,5.2,1.6,4.6,4.1C471,815.8,472.6,811.5,478.6,811.1z"/>
<path id="Renfrewshire" data-name="Renfrewshire" d="M379.7,1019.6c22.1-8.2,46.6,26.7,14.6,26.5c-0.8,4.2-1.7,1.8-2.6,4.5
	c-1,2.4-2.5-1.2-3.8,0.8c-0.4,5.2-2.7-1.9-3.4-1.6c-0.9,1.1-7.2,7.3-7,2c-2.6-0.7-2.4,8.9-4.8-2.9c-1-5.3-8-1.6-6.7-6.9
	c-20.8-13.8,22.6,7.3,13.9-17.5C374.7,1024.2,379.2,1021.8,379.7,1019.6z"/>
<path id="Scottish_Borders" data-name="Scottish Borders" d="M614,1173c-4.8,7.7-17.6,10-18.2,14.3c-2.9,5.9-2-2.7-3.1-3.3
	c-12.6-3.8,6.3-22.8-2.9-20.4c-10.3,0.6,7.1-10.2-3.1-10.2c0.2,2.9-2.9-1.4-2.9-0.4c-3.6-4-5.7,4.2-8.9,3.3
	c-0.1-5.3-6.5,3.5-4.8-5.7c-5.8-5-4.3-14.4-12.2-12.2c-5.3,5.3-4.1-11.3-15.8,1.2c-5.2,5.8-4.5-6.2-1.9-9.8c5-5,10.7-8-0.2-7.3
	c-4-7-5.1,5.4-9.4,4.1c-33.6,7.4-8.9-17.6-16.6-35.9c-3.9-4.3-1.7-6.5,3.8-6.1c-2.3-7.7,3.4-11.3,8.9-17.5c4.4-5.1-3.7,1.1-4.6-9
	c-5.1-7.4,1.4-13.6,9.4-16.7c5.6,9.9,0.5,5.4,7.7,6.5c4.6-0.5-1.8,7.1,10.1,1.6c9.5-13.5,4.9,24.5,15.4,12.7
	c-4.1-4.1,21.8-25.7,19-14.7c3.3,1.7,2.6-4,6.7-2.4c2.8-6.1,5.1-1.1,10.6-5.3c4.9-3,0.4-2.5,4.8-0.8c1.9,4.9,13.3-5.9,13.7,0
	c-0.9,2.4,2.3-1.2,2.4,0.8c2.5-1.2,5.7,3.1,5.5-2.4c15,2.6-8.3-18.2,9.6-13.5c4.8,14.5,15.3-12.2,19-6.1c-1.7,1.7,16.3,0.8,26.6,6.1
	c-2.6,7.5,6.6,3.7,7.2,11.8c8.4,16.2,0.6,4.1-2.2,15.5c1.5,4.8-2.2,1.5-2.6,4.9c1.4,1.1-0.8,1.2-1.2,1.6c1,3.3-2.2,0.3-3.6,1.6
	c0.8,4.7-13.1,14.7-10.6,19.2c1.2,3.1-9.5-2.8-12,2c-0.4,1.8,7.1,4.3,5.3,11.4c31.6,42.8-2.9,20.5-5.5,41.6
	c-6.7,12.9-17.2-2.9-22.8,11.8c-3.9,0.7-18.4,14-11.8,15.1c2.4,1.3-2.7-1.4-1.7,5.3C613.9,1166.5,616.4,1169.3,614,1173z"/>
<path id="Shetland_Islands" data-name="Shetland Islands" d="M833.6,0c0,0.2-0.1,0.5,0.3,0.4C833.9,0.2,833.9-0.1,833.6,0z M833.6,0.4l-0.3,0.4
	C833.7,0.9,833.6,0.6,833.6,0.4L833.6,0.4z M832.9,0.8c0,0.2-0.1,0.5,0.3,0.4C833.1,1,833.2,0.7,832.9,0.8z M832.4,1.2v0.4
	C832.5,1.5,832.9,1.2,832.4,1.2L832.4,1.2z M833.6,2c-10.6,12-4,14.8-9.3,24.1c4.2,6.9-5.3-2.3-1.2,4.5c1.4,2.2-1,2.7-1,5.3
	c4.2-1.7-0.6,2.6,3.6,1.2c1.9,2.8,2.8-2.9,5.5-2.8c1,3.5,7.2,3.1,9.1,1.2c-11.6-9.8,15.1-6,0.2-21.6c12.1,4.4,2.8-3,4.1-4.9
	c1.1-0.3,5.8-1.4,1.7-1.6c-0.3-1.8,1.2-2.6-1.9-1.6c0.3-2.3-0.4-0.3-1.7-0.4c-2.6-1.8-4.6-3.5-6,3.7C832.2,14.8,839.2,0.5,833.6,2z
	 M848,8.1c-0.1,1.2,1.6-0.3,0.7-0.4C848.3,7.7,848.7,8.3,848,8.1z M826.2,37.9c-0.4-0.2-0.4,1,0,0.8
	C826.2,38.5,826.2,38.1,826.2,37.9z M824.3,26.1c0-0.2,0.1-0.5-0.3-0.4C824.1,25.9,823.9,26.2,824.3,26.1z M826.2,22.4
	c-0.3-0.1-0.2,0.2-0.3,0.4L826.2,22.4z M825.7,13.5c-0.3-0.1-0.2,0.2-0.3,0.4L825.7,13.5z M832.2,4.1l-0.3-0.4
	C831.9,3.9,831.9,4.1,832.2,4.1z M832.9,2.8l0.3-0.4C832.8,2.4,832.9,2.6,832.9,2.8z M831.7,3.3v0.4C831.7,3.5,832.2,3.2,831.7,3.3z
	 M847.3,4.5c0,0.4-0.8,1.4,0.3,1.2C847.5,5.1,848.8,4.3,847.3,4.5z M827.4,9c0,0.2-0.1,0.5,0.3,0.4C827.6,9.2,827.7,8.9,827.4,9z
	 M825,15.1c-0.1,0.4,0.1,0.4,0.5,0.4C825.4,15.3,825.2,15,825,15.1z M825.5,15.5l0.3-0.4C825.4,15,825.5,15.3,825.5,15.5z
	 M825.9,17.5c0,0.2-0.1,0.5,0.3,0.4C826.2,17.8,826.3,17.4,825.9,17.5z M826.2,18c0,0.2-0.1,0.5,0.3,0.4
	C826.4,18.1,826.5,17.9,826.2,18z M805.5,24.1c0,0.2-0.1,0.5,0.3,0.4C805.8,24.2,805.8,24,805.5,24.1z M806,24.5
	c0.1,0.4-0.8,0.9,0.2,0.9C806.7,25.1,807.1,24.2,806,24.5z M823.1,24.5c-0.1,0.4,0.1,0.5,0.5,0.4C823.6,24.4,823.5,24.4,823.1,24.5z
	 M811.1,24.9c-1.3,0.8,0.4,4.9-1.2,3.3c-1-3.8-6.5-2-5.1,0.4c-0.2,7.6-6,15.5,0.5,21.6c1.2,3.7-1,0.2-1.7-1.6
	c-4.9,2.3-1-10.6-3.4-6.2c-4.7,5.6-19.8,1.1-23,6.2c-0.4,0.9,3.9,6.9,1,2.8c-3.5,0-7.1-0.1-9.4-2.4c0,3-3.9,3.5,0,3.3
	c-6,3.1,0.1,5.6-2.6,6.1c-10.8,5.8-4.6,15.3,5.5,12.6c-11.4,9.6-18.2-22.2-21.1,0c-0.3,7.3-3.3-5.9-7.7,6.1c4.4,4.2,2.4-0.9,4.6,1.6
	c8.9-5.5,3.8,0.8,12-1.6c-4.3,6,1.7,8.7,1.4,1.6c5.9-5.5,2.2-2.6,2.4,1.6c2.3,0.8,4-2.9,2.9,0c-5.5,0.4-3.4,5.1,1.4,3.2
	c1.8-0.1-3.6,2.4-3.6,1.6c1.4,11.7,2,2.8,7.9,6.5c0.8,1.9-1.3-0.8-1.9-0.4c-1.9,3.3,0.6,2.3,0.9,4.1c-4.4,0.7,2.5,3.1,1,3.7
	c-9.1-6.6-12.8,4.4-4.8,6.5c7.7,2.3,6.5-14.6,10.3-7.8c-3.1,3.4,0,4.3,2.4,2.9c6-0.7,11,7.5,3.1,1.6c-3.8,1.5-5.4-0.6-3.8,4.9
	c-8.1-5.2-1.2,9.8-5.1,10.6c-2.7-11.7-4.4-3.3-6.2-8.6c-0.5-1.5-0.7,1.6-1.5,1.2c-3.4-1.2,2.9-0.7-2.9-2.9c-1.8,0.7-2.2,0.7-1.2-0.8
	c-1.1-1.6-3.4,3.5-0.7,2.8c4-0.5-2.7,0.2,0.7,3.3c0.7-3,4.8-2.8,1.4-0.8c-2.1,0.1,3,2.1,0.5,1.2c-2.7,1.2,0.3,0.5-0.2,2
	c-3.2-3.8-4.3-0.2-1.7,2.4c1.8,0.2-2,0.8-0.7,1.2c-2.1-2.9-0.6-11.4-7.9-6.1c-3.2,2.3,2.4,1.7,0.7,3.7c-2.8-3.4-6.3,4-6.7-2.4
	c-16-4.7-15.5,13.1-7.7,15.9c5-0.8-1.6,0.6,1.4,2.9c1.2,0.5,8.2,2.5,4.3-1.2c8.9-3.2,3.9,9.1,11.3-2c-3.8-0.4,0.3-4.5-0.7-2.1
	c0.1,0.9,0,0.8,1,1.2c4.4,1.5-1-0.2,1.2,3.7c1.4,0.4,4.7-2.3,3.8-0.4c-16.1,4.2-6.3,6.6-2.2,12.2c4.9-2,1.9,8.6,6.5-6.1
	c2,12.1,4.3-4.6,5-5.7c-1,7.6,4.8-3.6,3.1,5.3c5.4-5.5-7.4-12.6-6-13.9c2.5,0.7,1.3,4,5.3,1.6c1.1,0,4.8,3.1,1,1.6
	c-0.5,2,1.4,2,0.5,4.5c2.2,1.5,2.1-1.3,1.7,2.9c2.9,2,9.8-16.7,5.3-4.5c2.2,0.8-4.6,14.1-1.7,11.8c1.1,5.8,4.6-11.2,3.8-3.2
	c0.9,1.6-3.5,8-0.5,7.8c1.2-0.4-1.7,2.1-1.7,3.2c2.5-0.6,6-0.5,1.2,1.2c-2.3,7.8,1,6.5,2.7-1.2c2.5,3-6.8,26.3-8.4,28.6
	c-0.5,1.5,4.3,6.6-0.3,4c-1.8-2.8-0.5,0.2-1.7,1.2c1.3,1.3,4.6-2.2,2.9,2.9c-0.3,0.2,2.1,2.3-0.5,2.1c-0.4-2.3,0.1,0.5-0.9,0
	c-4.4-0.6,0.3,5.7-4.8,6.5c-1.4,12.1,12.1-3.8,8.7,9.4c1.7,5.9,0.7-4.5,3.3-0.4c-1.2,0.6,2.3,2.4,1.4,3.7c0.2-6.8,2.1-21.6,1.2-28.6
	c2,1.4-0.1-2.2,2.9-0.4c0.5,5.8,3.6-5.4,3.6,3.7c2.7,1.4,0.5-0.7,0.7-2.4c3-0.5-7.3-10.4-1.2-9.4c0.4,0.2,0-0.7,0.7-0.4
	c0.2-0.4-1.2-1.4,0-1.2c10.9,2.2-2.8-0.8,0.5-9.8c-5.2-4.1,5.2-3.8,0.2-7.4c0.2-4.4,4,2.7,4.3-0.4c-1-0.4-0.7-2.8,0-3.3
	c1.3-0.4,1.2,4.5,1.9,1.6c-2.2-7.2,4.8,0.1,1.2-5.7c-3.8,0.2-0.7-3.2-1-5.3c3.5-2.8-2.9,0.9-0.2-2.9c1.2-2.2-6.5,4.4-6.3,4.9
	c-4.4,3.1,6.4-9,3.6-6.9c2.1-6.8-2.4,1-4.8,1.6c2.4-4.4,6.3-8.3-0.7-5.7c-3.6-1,7.5-3,2.2-5.3c-0.5-1.4,0.6-4.5,1.2-2
	c0.6,2.8,4.5-0.5,3.1,2c-4.7,2.8,2.6,4.6,2.4,0.8c0.6-0.6,3-3.6,4.3-1.6c2.6,0.4,3-3.8,0.2-1.6c-2.1-0.4,2.4-2.4-0.7-2.1
	c-1.2,1,0.7,1.8-2.4,0.4c-0.6,0.5-0.6,0.6-1.2,0c0.1,0.4-0.2,1.3-0.2,0.4c-1.8,1.3,1.6-2.8,0-1.2c-3.5-0.2,6.1-7.3,6.5-4.5
	c0.7-0.2,2.6,0.1,1-1.6c0.8-7.6,0.9-0.6-3.8-4.1c-0.7,3.1-4.2-3.8-5.5-1.2c-0.1,4.3-2.5-5.1-1.2-3.7c6.6,2.7,17.1-3.1,10.6-7.4
	c-3.3-5.7-5.2,7.9-5.3,1.6c0.5-0.3,0.4-0.7,0.2-1.2c-0.5,0.2-0.7,1.6-0.7,0c21.7-18.7,2.3-13.9,1.4-4.5c-2,3.5-2.4-1.7-4.1,1.6
	c-3,11,2.3-8.6-6.2-1.2c-3.2,1.8-0.1-1.3,1.9-1.6c1-5.2-14.9,8.1-3.6-1.6c1.9-0.1,3.3-4.2,3.8-0.4c4.3,2.6,2.4-4.6,0.3-1.6
	c-1.5-1.3,3.3-1.1,2.9-2c-11.3-4,9.3-2.7,7.9-10.6c-6-1.9,0.1-3.1,3.8,0.4c1.2-0.2,4-3.2,3.4-1.2c-2.3,0.7-1.4,0.3-0.5,1.2
	c2.7-1.4,0.4-4.2,2.6-8.6c0.9-1-1.9,0.6-2.4-0.4c2.6-1.8-2.2-2.2-0.5-3.2c8,0.8,1.6-1.1,4.1-3.3c2.6-0.3-0.1-6.2-1.5-5.3
	c-0.3,2.2-0.4-2.7-2.2-1.6c-2.9,1.3-6.5-5.3-1.2-1.2c0.6,2.8,1.8-2.2,1.7,0.4c6.7-2.2-4.5-10.9-2.9-12.6c14.1,14.3,6.6-1.2,7.7-8.1
	c4,3.1-3-3.7-0.7-2.4C821.5,24.8,811.1,28.5,811.1,24.9L811.1,24.9z M815.2,26.1c0-0.2,0.1-0.5-0.3-0.4
	C814.9,25.9,814.8,26.2,815.2,26.1z M818.5,27.3c0,0.2-0.1,0.5,0.3,0.4C818.7,27.5,818.8,27.2,818.5,27.3z M821.2,31.8l0.2,0.4
	C821.4,32,821.5,31.8,821.2,31.8L821.2,31.8z M816.3,71.4c-0.1,0.4,0.1,0.4,0.5,0.4C816.7,71.4,816.6,70.7,816.3,71.4z M812,75.9
	c-0.1,0.4,0.1,0.5,0.5,0.4C812.6,75.9,812.4,75.8,812,75.9z M803.6,93.8c0-0.2,0.1-0.5-0.3-0.4C803.4,93.6,803.3,93.9,803.6,93.8z
	 M805.1,94.6c0.3,0.1,0.2-0.2,0.3-0.4L805.1,94.6z M805.3,109.3c0-0.2,0.1-0.5-0.3-0.4C805.1,109.1,805,109.4,805.3,109.3z
	 M809.9,110.6c0.3,0.1,0.2-0.2,0.2-0.4L809.9,110.6z M803.6,120.3c0.5,0,0.5,0,0.3-0.4C803.5,119.8,803.6,120.1,803.6,120.3z
	 M801.7,126.1c0.5,0.9-0.1-0.2,0.5,0C802.3,125.4,801.9,125.6,801.7,126.1z M801.9,126.5c0,0.2-0.1,0.5,0.3,0.4
	C802.2,126.7,802.3,126.4,801.9,126.5z M796.9,123.6c-0.6,0-1.3-1.2-1.2,0.4C796.5,124,796.4,125.3,796.9,123.6L796.9,123.6z
	 M800.3,142l-0.2,0.4C800.4,142.5,800.2,142.1,800.3,142z M799.3,148.1c0,0.2-0.1,0.5,0.2,0.4L799.3,148.1z M788.5,178.7
	c0,0.2-0.1,0.5,0.3,0.4L788.5,178.7z M775.5,188.5v-0.4C775.2,188,775.2,188.6,775.5,188.5z M777.2,184c-0.3-0.1-0.2,0.2-0.3,0.4
	L777.2,184z M776,183.6l-0.3-0.4C775.8,183.4,775.7,183.6,776,183.6z M781.3,143.6c-0.3-0.1-0.2,0.2-0.3,0.4
	C781.4,144.1,781.3,143.8,781.3,143.6L781.3,143.6z M780.1,142.8c-0.3,0-0.5,0-0.5,0.4C780,143.2,780.2,143.2,780.1,142.8z
	 M781.3,136.3c0-0.3-0.2-0.8-0.5-0.9C780.9,136.3,780.6,137,781.3,136.3L781.3,136.3z M780.8,135.9c-0.4-1-0.7,0-0.2,0.4
	C780.6,136.1,780.5,135.8,780.8,135.9z M780.3,135.9c-0.3-0.1-0.2,0.2-0.3,0.4C780.4,136.4,780.3,136.1,780.3,135.9z M780.1,136.3
	c-0.3-0.1-0.6,0.1-0.7,0.4C779.7,136.6,780.2,136.8,780.1,136.3L780.1,136.3z M774.6,137.5c-0.3-0.1-0.2,0.2-0.3,0.4
	C774.7,138,774.6,137.7,774.6,137.5z M768.6,142.8l-0.3,0.4C768.7,143.3,768.6,143,768.6,142.8z M767.9,142.4l-0.3,0.4
	C768,142.9,767.9,142.6,767.9,142.4z M762.8,144.8l-0.2-0.4C762.6,144.6,762.5,144.9,762.8,144.8z M761.4,144l-0.3,0.4
	C761.4,144.5,761.4,144.3,761.4,144L761.4,144z M758,143.6c-0.4,0-0.6,0-0.5,0.4C757.9,144.1,758.1,144.1,758,143.6z M757.5,142.8
	c-0.3,0-0.5,0-0.5,0.4C757.4,143.2,757.6,143.2,757.5,142.8L757.5,142.8z M754.9,139.9c0,0.2-0.1,0.5,0.2,0.4
	C755.1,140.1,755.2,139.9,754.9,139.9L754.9,139.9z M753.9,139.5c-0.3-0.1-0.2,0.2-0.3,0.4C754,140,753.9,139.7,753.9,139.5
	L753.9,139.5z M753.9,135.1l-0.3-0.4C753.7,134.8,753.6,135.2,753.9,135.1z M746.8,114.2c0.2,0.1,0.4-0.3,0.5-0.4
	C747,113.7,746.8,114.1,746.8,114.2z M747,114.2l0.3,0.4C747.2,114.5,747.3,114.1,747,114.2z M753,113.4c0.1-0.7,1-0.6,0.5-1.6
	C753.1,111.5,752,113.7,753,113.4L753,113.4z M761.1,118.3c0.4,0,0.6,0,0.5-0.4C761.4,117.8,761.2,118.2,761.1,118.3z M760.4,108.1
	v-0.4C760.4,107.9,760,108.2,760.4,108.1z M769.1,105.3c0,0.2-0.1,0.5,0.3,0.4L769.1,105.3z M764,86.5c-0.3,0-0.6-0.1-0.5,0.4
	C763.9,86.9,764.1,86.9,764,86.5z M764.5,85.3c0.4,0.2,0.4-1,0-0.8C764.5,84.6,764.5,85.1,764.5,85.3z M749.6,77.9
	c-0.3-0.1-0.2,0.2-0.3,0.4C749.7,78.4,749.6,78.1,749.6,77.9z M744.3,74.2c-0.3-0.1-0.2,0.2-0.3,0.4L744.3,74.2z M747,71.8
	c0.3,0.1,0.2-0.2,0.3-0.4C746.9,71.3,747,71.6,747,71.8L747,71.8z M767.9,52.2l-0.3,0.4C767.9,52.7,767.9,52.5,767.9,52.2z
	 M768.6,49.4c-0.1-1.1-1.1-0.8-2.2-0.4C767.1,50.2,766.8,49.6,768.6,49.4L768.6,49.4z M766.7,49.4l-0.3,0.4
	C766.7,49.9,766.6,49.6,766.7,49.4L766.7,49.4z M801,42l0.2,0.4C801.2,42.2,801.3,42,801,42z M814.4,25.3c0,0.2-0.1,0.5,0.2,0.4
	C814.6,25.5,814.7,25.2,814.4,25.3L814.4,25.3z M823.3,25.3c0,0.2-0.1,0.5,0.3,0.4C823.6,25.5,823.6,25.2,823.3,25.3L823.3,25.3z
	 M810.6,29.4c0-0.1,0.4,1.7,0,1.6C810.6,30.1,810.2,30.1,810.6,29.4L810.6,29.4z M829.6,36.7c-0.3,2.4,2.3,1,2.2,3.2
	c0.4,1,0.5-0.4,1.4,0c0.5,0.4,0.5,1,0.9,0c-1.3-1.7,1.1-0.1,0.7-2C833.1,38.8,832.3,36.1,829.6,36.7L829.6,36.7z M821.2,37.9
	c-0.1,1.3,1.5,1.3,1.7,2.9C824.9,40.5,821.6,38,821.2,37.9L821.2,37.9z M838.7,39.6c0.1,0.6,0.6,1.1,1.2,1.2
	C839.7,40.1,839.8,39.4,838.7,39.6L838.7,39.6z M834.3,41.2c-0.1,0.4,0.1,0.5,0.5,0.4C834.9,41.2,834.7,41.2,834.3,41.2z M783,41.6
	c0.2,0.7-0.6,0.1-0.5,0.8C783.2,42.7,783.6,41.7,783,41.6L783,41.6z M826.4,43.6c-0.8,0.6,1.2,0.7,0.9,0
	C827.1,43.6,826.7,43.6,826.4,43.6L826.4,43.6z M830,44.5c0.4,0.5,0.2,1,1,0.8C831.2,44.4,830.8,44.4,830,44.5L830,44.5z
	 M832.7,45.3l-0.2,0.4C832.8,45.8,832.6,45.5,832.7,45.3L832.7,45.3z M832.4,45.7c-0.5,0-1.2,1-0.3,0.8
	C833.1,46.6,832.4,46.1,832.4,45.7L832.4,45.7z M835.6,46.1c-3,5.8-6.5-1.6-8.2,1.6c-2.9,2.4,5.1,15.7,9.1,12.3
	c-4.4-7.4-5-4.9,3.6-4.5c0.5,0.9,1.1,2.1,2.2,2.4c0,1.4,0.7-1.5,0.7,0c1,0.3,0.4,2.7,1.7,0.8c0.9-2,4.7-5.1,2.4-8.6
	c0.5-2.9-4.6,6-4.1,1.6C839.6,53.4,843.9,46.3,835.6,46.1L835.6,46.1z M845.6,57.5c0.3,0.1,0.2-0.2,0.3-0.4
	C845.6,57,845.6,57.3,845.6,57.5z M830.8,46.9c0.3,0.1,0.2-0.2,0.3-0.4C830.7,46.4,830.8,46.7,830.8,46.9z M819.7,48.9
	c0.9,2.4-1.6,2.3-1.7,4.1c1.2,0.7,2.6,1.1,1.4-0.8C823.5,52.3,826.2,49.5,819.7,48.9z M763.8,58.8c0,0.2-0.1,0.5,0.3,0.4
	C764,58.9,764.1,58.7,763.8,58.8z M743.4,78.7c-0.1,0.7,0,0.9,0.7,0.8C744.2,78.9,744.1,78.6,743.4,78.7z M743.4,79.5
	c-0.5,0.1,0-0.5-0.5-0.4C742.1,79.1,743.5,80.8,743.4,79.5z M746.3,80c0,0.2-0.1,0.5,0.3,0.4C746.5,80.2,746.6,79.9,746.3,80z
	 M814.4,82.8c-0.3,0.4-0.4,1,0.2,0.8C815.1,83.1,815.5,82.8,814.4,82.8z M813.5,83.2c0,0.2-0.1,0.5,0.3,0.4
	C813.7,83.4,813.8,83.1,813.5,83.2L813.5,83.2z M803.4,83.6c0.1,0.6-0.5,0.6-0.5,1.2C803.7,85.2,804.4,83.5,803.4,83.6L803.4,83.6z
	 M801.2,84.4c0,0.4-1.8,2-0.5,2.1C802.3,87,801.9,84.8,801.2,84.4L801.2,84.4z M763.3,85.7v0.4C763.6,86.2,763.6,85.5,763.3,85.7
	L763.3,85.7z M836.5,86.1v0.4C836.5,86.3,837,86,836.5,86.1L836.5,86.1z M848.3,87.3c-2.1,2.5,0.7,1.4-0.7,2c-0.7,0.8-0.6,0.2-1.4,0
	c-4,5.2,2.8,0,5.5,0.9c1.2-0.3-0.2-1.3-1,0c2-3.9-0.8-1.2-1.7-1.2c0.8-0.2-0.4-2.9-0.3-0.9C848.3,88.2,848.8,87.3,848.3,87.3
	L848.3,87.3z M851.9,89.3c0.5,0.1,0.1-0.2,0-0.4V89.3z M852.1,90.2c0.3,0.1,0.2-0.2,0.2-0.4L852.1,90.2z M846.6,89.3
	c0.3,0,0.5,0,0.5-0.4C846.7,88.9,846.5,88.9,846.6,89.3L846.6,89.3z M801,88.1c-0.1,0.4,0.1,0.5,0.5,0.4
	C801.5,88.1,801.4,88.1,801,88.1z M848.3,88.5c0.3-0.1,0.3,0.6,0,0.4V88.5z M852.8,88.9c-0.1,0.5,0.2,1.3,0.2,0.4
	C853.6,89.4,853.3,88.8,852.8,88.9z M852.8,89.7c-0.3-0.1-0.2,0.2-0.3,0.4C852.9,90.3,852.8,90,852.8,89.7z M807,89.3v0.4
	C807.3,89.9,807.3,89.2,807,89.3z M767.9,91.8c-0.4,0.8-1.2,0.3,0,1.2C768.1,92.7,769.2,91.5,767.9,91.8z M844.4,93
	c-0.2,0.6,0.7,0.1,0.5,0.8C845.5,93.7,845.1,92.7,844.4,93z M771.9,94.3c0.6,0,0.1,1.3-0.3,1.2C771,94.6,772,94.8,771.9,94.3
	L771.9,94.3z M772.4,94.6c0.5-0.1,0,0.2,0,0.4V94.6z M842.5,95.1c-0.1,0.4,0.1,0.5,0.5,0.4C843.1,95,842.9,95,842.5,95.1L842.5,95.1
	z M843.5,95.1c-0.1,0.4,0.1,0.5,0.5,0.4C844,95.1,843.9,95,843.5,95.1L843.5,95.1z M842,95.5c0,0.2-0.1,0.5,0.3,0.4
	C842.3,95.6,842.3,95.4,842,95.5L842,95.5z M831,96.3c-0.1,0.4,0.1,0.5,0.5,0.4C831.5,96.3,831.4,96.2,831,96.3z M831,96.7
	c-7.6,3.8-12.5,2.6-15.6,10.6C820,114.5,830.1,99.7,831,96.7L831,96.7z M831.7,98.3c0.3,0.1,0.2-0.2,0.2-0.4L831.7,98.3z
	 M815.4,107.7c-0.3-0.1-0.2,0.2-0.2,0.4L815.4,107.7z M816.3,106.1c0.3,0.1,0.2-0.2,0.3-0.4C816.3,105.6,816.3,105.8,816.3,106.1z
	 M819.5,101.2l0.3-0.4C819.4,100.7,819.5,101,819.5,101.2z M764.3,97.9c-0.3,0.4-0.2,0.4,0.3,0.4C764.5,98.1,764.6,97.8,764.3,97.9z
	 M772.7,98.7c0.3-0.1,0.2,0.2,0.3,0.4C772.6,99.2,772.7,98.9,772.7,98.7z M720.1,99.1c-0.1,0.4,0.1,0.4,0.5,0.4
	C721,100.9,721.2,98.9,720.1,99.1z M720.8,99.9c0,0.2-0.1,0.5,0.3,0.4L720.8,99.9z M832.7,99.1c0,0.2-0.1,0.5,0.3,0.4
	C832.9,99.3,833,99.1,832.7,99.1z M816.6,99.9c-1,1.3-3.4,1.7-1.7,4.9C815.5,104.5,817.6,99.7,816.6,99.9z M720.1,100.4
	c0,0.2-0.1,0.5,0.3,0.4C720.3,100.6,720.4,100.3,720.1,100.4z M718.9,100.8c-0.1,0.4,0.1,0.4,0.5,0.4
	C719.5,100.8,719.3,100.8,718.9,100.8z M812.5,100.8c-0.1,0.4,0.2,0.4,0.5,0.4C813.1,100.7,812.9,100.8,812.5,100.8z M813.2,100.8
	c0,0.5,0.1,1.1,0.5,1.2C813.6,101.5,814,100.6,813.2,100.8z M832.2,100.8c-0.1,0.4,0.1,0.4,0.5,0.4
	C832.7,100.8,832.5,100.8,832.2,100.8z M831.7,101.6c-0.1,0.6,0.3,0.4,0.7,0.4C832.6,101.4,832.1,101.6,831.7,101.6z M775.3,102.4
	c-0.7,1.1,0,1.9,1.2,1.6C776.9,102.9,777.1,102.1,775.3,102.4L775.3,102.4z M812.3,102.8v0.4C812.6,103.4,812.6,102.7,812.3,102.8z
	 M812.5,103.2c-0.1,0.4,0.2,0.4,0.5,0.4C813.1,103.2,812.9,103.2,812.5,103.2L812.5,103.2z M813,103.2c0.4,0,0.5,0,0.5-0.4
	C813.1,102.8,812.9,102.8,813,103.2L813,103.2z M831,102.8c-0.1,0.4,0.1,0.5,0.5,0.4C831.5,102.8,831.4,102.8,831,102.8z
	 M811.3,103.6c0.1,0.5-0.4,0.4-0.3,0.8C811.7,104.7,811.7,103.6,811.3,103.6z M734.5,105.7v0.8C734.6,106.3,735,105.6,734.5,105.7z
	 M834.1,105.7c0,0.2-0.1,0.5,0.3,0.4C834.3,105.8,834.4,105.6,834.1,105.7z M834.1,106.1c-1-0.3-0.6,0.7-1.2,0.8
	C833.1,107.9,834.4,107,834.1,106.1z M772.4,106.1c-0.3,1.3-1.8-0.6-0.2,1.6c-0.7,1.1-2.3,0.6-1.2,2.4
	C773.3,111.7,775.3,106.2,772.4,106.1z M837.2,106.1c-0.1,0.3-0.3,0.5-0.6,0.4h-0.1C836.3,108,837.5,107,837.2,106.1z M837.2,106.5
	c0.3,0.1,0.2-0.2,0.3-0.4L837.2,106.5z M728.3,107.3c0,0.2-0.1,0.5,0.3,0.4C728.5,107.5,728.6,107.2,728.3,107.3z M728.5,107.7
	c-0.1,0.6,0.3,0.4,0.7,0.4C729.4,107.6,728.9,107.7,728.5,107.7z M804.3,108.1c-0.1,0.4,0.1,0.4,0.5,0.4
	C804.9,108.1,804.7,108.1,804.3,108.1z M831,109.3c-0.1,0.4,0.1,0.4,0.5,0.4C831.4,109.6,831.2,109.3,831,109.3z M831.5,109.7
	c0.3,0.1,0.2-0.2,0.3-0.4C831.4,109.3,831.5,109.5,831.5,109.7z M764.8,109.7c0.3-0.1,0.3,0.6,0,0.4V109.7z M759.5,110.1
	c-0.2,0.6,1.2,0.6,0.9,0C760.1,110.1,759.8,110.1,759.5,110.1L759.5,110.1z M799.3,110.1l0.2,0.4
	C799.2,110.7,799.3,110.3,799.3,110.1L799.3,110.1z M738.8,111c0,0.2-0.1,0.5,0.3,0.4C739.1,111.2,739.1,110.9,738.8,111L738.8,111z
	 M759.9,111.8c-0.1,0.6,0.3,0.4,0.7,0.4C760.8,111.6,760.4,111.8,759.9,111.8z M740,112.6c0.1,0.2-0.2,1,0.2,0.8
	C740.7,113.5,740.6,112.3,740,112.6L740,112.6z M765.2,113c0.4,0,0.5,0,0.5,0.4C765.3,113.5,765.2,113.4,765.2,113z M810.1,114.2
	c-0.1,0.4,0.1,0.5,0.5,0.4C810.7,114.2,810.5,114.2,810.1,114.2L810.1,114.2z M749.6,114.7c0,0.5,0.6,2.1,0.9,1.2
	C750.5,115.4,750.3,114.6,749.6,114.7L749.6,114.7z M764.8,115c2.2,0,1,0.1,0.2,0.8C764.7,115.9,764.9,115.4,764.8,115L764.8,115z
	 M763.3,116.7c0.8,0.6,0.4,0.9-0.7,0.8C762.4,116.7,763.5,117.5,763.3,116.7L763.3,116.7z M804.3,119.5c0,0.2-0.1,0.5,0.3,0.4
	C804.6,119.7,804.7,119.5,804.3,119.5L804.3,119.5z M801.9,121.6c0.5-0.1,0,0.2,0,0.4V121.6z M802.4,125.2c-0.1,0.4,0.1,0.5,0.5,0.4
	C803,125.2,802.8,125.2,802.4,125.2L802.4,125.2z M808.7,125.2c-0.1,0.4,0.1,0.5,0.5,0.4C809.2,125.2,809.1,125.2,808.7,125.2
	L808.7,125.2z M754.9,126.1c0.3,0.1,0.5,0.5,0.5,0.8C755.3,126.5,754.8,126.5,754.9,126.1L754.9,126.1z M802.9,126.5
	c-0.4,0.5,0.1,0.3,0,0.9C803.1,127.1,803.4,126.3,802.9,126.5L802.9,126.5z M801.2,127.3v0.4C801.3,127.5,801.7,127.2,801.2,127.3
	L801.2,127.3z M786.8,128.5c1.6,1.8-1.7,4.7-2.4,6.5C783.1,133,786.8,131.6,786.8,128.5L786.8,128.5z M747.7,131
	c0.3-0.1,0.2,0.2,0.3,0.4C747.6,131.4,747.7,131.2,747.7,131L747.7,131z M752.5,131.3c0.5-0.1,0,0.2,0,0.4V131.3z M750.1,131.8
	c-0.6,1.7-0.1,0.7,0.7,1.6C751,132.8,750.7,132.1,750.1,131.8L750.1,131.8z M747.5,132.6c0,0.2-0.1,0.5,0.2,0.4
	C747.7,132.8,747.8,132.5,747.5,132.6L747.5,132.6z M783.5,133.4c0.3,2.4-1.8,5.9-2.2,8.1C779.8,140.4,783.5,135.5,783.5,133.4
	L783.5,133.4z M747.7,133.8c-3.5,1.9,0.6,4.4,1,2.8C751.7,138.4,752.5,134.1,747.7,133.8L747.7,133.8z M746.5,135.1
	c0-0.2,0.1-0.5-0.3-0.4C746.3,134.8,746.2,135.2,746.5,135.1L746.5,135.1z M760.9,133.8c0,1.4-0.3,0.8-1.2,0.8
	C759,134.1,760.8,134.5,760.9,133.8L760.9,133.8z M806.3,133.8c0,0.2-0.1,0.5,0.3,0.4C806.5,134,806.6,133.8,806.3,133.8
	L806.3,133.8z M780.3,134.6c-0.1,0.4,0.1,0.5,0.5,0.4C780.9,134.6,780.7,134.6,780.3,134.6L780.3,134.6z M771.9,136.3
	c0,0.2-0.1,0.5,0.3,0.4C772.2,136.4,772.3,136.2,771.9,136.3L771.9,136.3z M811.1,137.1c-0.4,0.8-1.3,0.8,0.5,0.8
	C812,137.8,811.8,136.8,811.1,137.1L811.1,137.1z M810.3,137.9c-2.2,0.1-1.6,3.1,0,3.3c-1.6,1.2-7.4-5-8.6,0.4
	c9,6.4-3.6,9.1,9.3,14.3c-0.3-4.7,2.6-8.6,3.4-13.4c-1.2-1.5-3.2,4.8-3.8,0.4C812.4,141.9,810.3,138.8,810.3,137.9L810.3,137.9z
	 M779.4,137.9c0,0.2-0.1,0.5,0.3,0.4C779.6,138.1,779.7,137.8,779.4,137.9L779.4,137.9z M779.6,138.3c-0.3,2,1.3-0.3,0.5-0.4
	C779.6,137.8,780.1,138.4,779.6,138.3L779.6,138.3z M805.3,137.9v0.4C805.6,138.4,805.6,137.7,805.3,137.9L805.3,137.9z
	 M775.1,138.3c0,0.2-0.1,0.5,0.3,0.4C775.3,138.5,775.4,138.2,775.1,138.3L775.1,138.3z M807.2,139.1c-0.1,0.6,0.3,0.4,0.7,0.4
	C808.1,138.9,807.6,139.1,807.2,139.1L807.2,139.1z M773.9,140.7v0.4C774.2,141.3,774.2,140.6,773.9,140.7L773.9,140.7z
	 M778.2,142.4c-0.1,1.5,1.6,1.5,1,0C778.2,142.2,779,143.3,778.2,142.4L778.2,142.4z M773.2,143.6v0.4
	C773.5,144.2,773.5,143.5,773.2,143.6L773.2,143.6z M773.6,144.4c-0.1,0.4,0.1,0.5,0.5,0.4C774.2,144.4,774,144.4,773.6,144.4
	L773.6,144.4z M814.7,145.3c-1.4,2-0.1,0.6,0,1.2c-0.4,0-0.3,1.1,0.3,0.8C819.2,152.2,822.4,145.7,814.7,145.3L814.7,145.3z
	 M775.5,145.6c-1.5,2.7-0.2,2.8,2.2,2.9C776.2,147.7,778.1,145.7,775.5,145.6L775.5,145.6z M779.6,148.1c-0.1,0.5,0.4,0.4,0.3,0.9
	C779.2,150,781,148.1,779.6,148.1L779.6,148.1z M779.6,149.3c-0.3-0.1-0.2,0.2-0.3,0.4C779.7,149.8,779.6,149.5,779.6,149.3
	L779.6,149.3z M774.3,149.7c-0.1,1.2-1.3-0.6-0.3,2C773.7,150.8,775.8,149.9,774.3,149.7L774.3,149.7z M774.3,150.9
	c-0.1,0.4,0.1,0.5,0.5,0.4C774.9,151,774.7,150.9,774.3,150.9L774.3,150.9z M774.1,151.7c-1.3,3.8,3,1.4,1.2,0
	C774.7,151.4,774,152.8,774.1,151.7L774.1,151.7z M776,152.6l-0.3,0.4C776.1,153.1,776,152.8,776,152.6L776,152.6z M773.9,152.2
	l-0.3-0.4C773.6,151.9,773.5,152.3,773.9,152.2L773.9,152.2z M776,150.9c-0.1,0.4,0.9,2,0.9,0.8C776.5,151.7,776.8,150.8,776,150.9
	L776,150.9z M777,151.7c0.8,2.1,3.7-0.7,1.4,0C778.4,151.4,776.8,151.2,777,151.7L777,151.7z M777.2,152.2c-0.3-0.1-0.2,0.2-0.3,0.4
	C777.3,152.7,777.2,152.4,777.2,152.2L777.2,152.2z M781.3,151.4c0,0.2-0.1,0.5,0.2,0.4C781.5,151.6,781.6,151.3,781.3,151.4
	L781.3,151.4z M780.8,152.6c0.6,5.9-2.6-0.1-2.4,3.2c-2.1,1.1,4-0.3,1,2.4c-2.7,1.3-4.4,5.6-1,6.5
	C778,161.6,784.4,154.5,780.8,152.6L780.8,152.6z M779.6,160.3c-1,1.5,1.2,1.2,0.3,2c-0.6,1.4,0.1,0.3,0.2,1.2
	c-1.3-0.1,0.6,2.1,0.5-0.4C781.7,165.2,787.1,150.3,779.6,160.3L779.6,160.3z M780.3,164.4c-0.3,0.7-3.8,4.2-1,4
	c0.7-0.1-0.1-0.9,0-1.2C779.8,167.5,782.2,164.2,780.3,164.4L780.3,164.4z M779.2,163.2c0.3,0.1,0.3-0.6,0-0.4V163.2z M779.9,157.5
	l0.2-0.4C779.8,157,779.9,157.3,779.9,157.5L779.9,157.5z M777.9,155.8c0-0.2,0.1-0.5-0.3-0.4C777.7,155.7,777.6,155.9,777.9,155.8
	L777.9,155.8z M777.7,155.5c0.1-0.7-0.3-0.4-0.5,0C777.3,155.5,777.6,155.5,777.7,155.5L777.7,155.5z M774.1,154.6
	c0,0.2-0.1,0.5,0.3,0.4C774.3,154.8,774.4,154.5,774.1,154.6L774.1,154.6z M774.6,154.6v0.4C774.9,155.2,774.9,154.5,774.6,154.6
	L774.6,154.6z M776.5,164.8c-0.4,1.6-2.3,2.8-2.4,2.1C773.1,171.3,779.9,165.7,776.5,164.8L776.5,164.8z M795.7,165.7v0.4
	C795.8,165.9,796.2,165.6,795.7,165.7L795.7,165.7z M794,168.1c0.3,0,0.5,0,0.5,0.4C794.2,168.5,794,168.5,794,168.1L794,168.1z
	 M775.1,170.9c0.6,1.3,2.6,3.6,2.2,0.9C778.9,170.8,776.5,171.5,775.1,170.9L775.1,170.9z M774.8,172.1c0.1,0.5-0.3,1.5,0.5,1.3
	C775.2,172.9,775.6,171.9,774.8,172.1L774.8,172.1z M779.6,172.6c0,0.2-0.1,0.5,0.3,0.4C779.9,172.8,780,172.5,779.6,172.6
	L779.6,172.6z M796.4,175.4c-0.3,4.1,6.1,4.2,3.1,2C798.9,176.3,797.7,175.6,796.4,175.4L796.4,175.4z M800.8,177.9
	c0.3,0.1,0.2-0.2,0.3-0.4C800.7,177.4,800.8,177.7,800.8,177.9z M778.2,184.4v0.4C778.5,185,778.5,184.3,778.2,184.4L778.2,184.4z
	 M776,186.4c-0.4,1.2,1.1,1.9,0.9,0.4C776.2,187.1,776.4,186.5,776,186.4L776,186.4z M776,187.7l-0.3-0.4
	C775.8,187.5,775.7,187.7,776,187.7L776,187.7z M774.6,190.9v0.4C774.6,191.2,775,190.9,774.6,190.9L774.6,190.9z M783.5,201.1
	c0.3,0,0.5,0,0.5,0.4C783.7,201.6,783.6,201.3,783.5,201.1L783.5,201.1z M779.4,203.2c0.2,0.6-0.7,1.3,0.3,1.2
	C779.8,203.8,780,203.4,779.4,203.2L779.4,203.2z M780.3,203.6c0,0.2,0,0.6,0,0.8C780.7,204.6,780.7,203.4,780.3,203.6L780.3,203.6z
	 M781.3,207.7c0.1,0.4-0.2,0.4-0.5,0.4C780.7,209,782.1,208.4,781.3,207.7L781.3,207.7z"/>
<path id="Fair_Isle" data-name="Fair Isle" d="M742.9,269.3c0,0.2-0.1,0.5,0.2,0.4
	L742.9,269.3z M741.9,269.7c0.4,3.6-4.2,10.7-0.3,7.8C741.6,280.9,751.1,268.6,741.9,269.7z M745.1,275.4c-0.1,0.7,0.6,0.5,0.7,0
	H745.1z M746.5,272.1c0,0.8-0.5,1.3,0.3,1.6C746.7,273.5,747.4,271.9,746.5,272.1L746.5,272.1z M741.5,272.9l0.2,0.4
	C741.4,273.4,741.5,273.1,741.5,272.9L741.5,272.9z" />
<path id="South_Ayrshire" data-name="South Ayrshire" d="M358.6,1205.6c-0.7-3.1-3.6-3.7-4.8-1.2c-1.4,0.9,0-2.9-3.8-1.2
	c-6.8,0.8-4.8-13.7-12.2,4.1c-27.2,17.6-0.5-34.4,11-40.8c5.2-18.8,4.6-34.2,21.8-44.9c20.3-10.7-13.8-31.4,18-32.6
	c0,10,23.9,3.1,15.8,18.8c-0.9,1.5-2.9-2-3.6,0.4c2.8,2.5-6.5,3.5-5,6.1c-4.4,1.9,3.6,3.1-0.5,6.1c10.3,8.4-2.5,11.9-5.3,4.9
	c-6.6-4-2.5,0-6,4.1c-1.5-1.6-4,1.9-2.4,1.2c0.3-0.8,2.2-1.4,1.7,0.4c1.2,0.3,0.1-1.4,0.7-0.4c19.8,1.4-11.5,2.8,16.1,17.1
	c0,4.1,2.5,18.7-3.4,23.3c5.9,16.9-9,3.6-14.4,11.4c-20.4,5.6,10.1,23.1-18.5,20.4C360.5,1205.3,360.3,1201.2,358.6,1205.6z
	 "/>
<path id="South_Lanarkshire" data-name="South Lanarkshire" d="M514.6,1126.4c-11.3,2.7-11.4,36.9-21.6,21.2c-16.7-46.6-51-20.3-37-44.5
	c9.3-7.1-1.2-5.7-2.4-10.6c-4.5-5.1-23.5,8.1-28.6,2.9c5.1-2.1,3.9-7.5,7.7-8.6c-11.8-8.5-1.2-22.7-8.2-27.7
	c-3.8-4.5-6.3-6.5-0.7-7.8c-0.3-4.8,3.8,1.4,3.1-3.3c4.4-3,1.3-3.4-1-6.1c1.4-1.3-0.8-6.8,1.9-2.4c2.5-2,1.9-3.3,2.9,0
	c4.6,2.3,10.9-2.3,18,4.1c16.8,38.4,49.4-27.2,77.8,21.2c5.8-0.5-14.9,13.3-8.4,16.3c0.5,5.5-7.2,1.5-6.2,6.1
	C523.9,1100,505.1,1114.1,514.6,1126.4z"/>
<path id="Stirling" data-name="Stirling" d="M381.7,987.3c1.6-5.8,0.6-6.4-0.9-6.4c-13.4-7.6-11.7-33.5-7.3-42.1c3.8,0-8.7-3.3-13.7-0.8
	c-6.4-14.1-9.9-4.4-4.3-19.2c2.3-1.2,6.6-4.3,10.1-4.5c0.5-7.4,6-4,12.7-7.8c0.2-2.7,3.9-5.7,6.7-5.7c10.2-0.8,0.7-2.2,7.9-4.1
	c0.8,4.3,6.3,0.5,9.1-0.8c13.8-2.2,7.1-10.2,16.3,6.9c-3.3,8.4,41.1-13.9,16.3,9.8c-12.4-9.4,3.9,16-9.4,12.6
	c-3.4,25.9,27.3,14.3,36.5,32.6c1.8-2.3,2.5,2.4,4.8-1.6c1.1,3.1,3.4,5,5.8,2c3.6,3.8,1.3,14.1-2.9,15.5c6.9,6.1-5.1-0.1,1.4,7.7
	c-2.4,1.7,2.6,1.4,1-1.2c4.1-1.1,1.4,1.9,2.6,3.3c14,19.2-25,6.5-35.5,19.6c-4.4,3.5-3.5-9.6-5.5-2c-12.4,2.7-18-8.6-12,11
	c-11.3,5.6-9.2-8.2-16.3-1.2c-2.1-0.8-4.6-3.3-4.6-6.1c-1.3-1.1-6.1-0.8-4.3-3.7c-4.3-3.9,1.9-8-1-9
	C394.9,990.3,384.2,991.7,381.7,987.3z"/>
<path id="West_Dunbartonshire" data-name="West Dunbartonshire" d="M396.5,1020c-24.8-1.3-11.3-1.3-19.7-15.1c-3.2,1.3-3.4-2.6,1.2-0.8
	c5.9-4.4-2.3-5.9,3.6-15.1c0-4.2,0.2,2.9,2.9,0.4c19.6,1.7,4.2,7.2,14.2,14.7C408.3,1009.3,414.6,1039.4,396.5,1020z"/>
<path id="West_Lothian" data-name="West Lothian" d="M489.4,1030.2c-21.2,1.4-11.5-7.2,5.8-13.9c-2-11.9,37.2-15.2,26.9-6.9
	c-1.5,1.9,4.1,5.1,1.9,5.3c-5.2,2.1,2.8,1.6-0.7,8.2c-3.9,3.4,6.9,1.2,5.5,2.9c1.6,2.1-2.9,2-1.2,3.7c-3.5,1.5,2,2.4-2.2,4.9
	c-0.7,3.3,5.1,6.6,2.2,8.2c-13.4,18.5-13.2,3.6-26.4,3.3c-5.3-2.3-17.4,8.7-14.2,2C489.6,1041.9,481,1035.2,489.4,1030.2z"/>
</svg>
